<?xml version="1.0" encoding="utf-8"?>
<!-- Generator: Adobe Illustrator 28.0.0, SVG Export Plug-In . SVG Version: 6.00 Build 0)  -->
<svg version="1.1" id="Layer_1" xmlns="http://www.w3.org/2000/svg" xmlns:xlink="http://www.w3.org/1999/xlink" x="0px" y="0px"
	 viewBox="0 0 854 480" style="enable-background:new 0 0 854 480;" xml:space="preserve">
<style type="text/css">
	.st0{fill:#0E1116;}
	.st1{fill:#A98BFF;}
	.st2{fill:#8B97A8;}
	.st3{fill:#E8ECF1;}
	.st4{fill:none;stroke:#4A5468;stroke-width:0.9007;stroke-miterlimit:10;}
	.st5{fill:#F7CE85;fill-opacity:0.95;stroke:#8B97A8;stroke-width:0.6005;stroke-miterlimit:10;}
	.st6{fill:#F7CE85;fill-opacity:0.65;stroke:#8B97A8;stroke-width:0.6005;stroke-miterlimit:10;}
	.st7{fill:#F2B441;fill-opacity:0.95;stroke:#8B97A8;stroke-width:0.6005;stroke-miterlimit:10;}
	.st8{fill:#F2B441;fill-opacity:0.65;stroke:#8B97A8;stroke-width:0.6005;stroke-miterlimit:10;}
	.st9{fill:#C98A1E;fill-opacity:0.95;stroke:#8B97A8;stroke-width:0.6005;stroke-miterlimit:10;}
	.st10{fill:#C98A1E;fill-opacity:0.65;stroke:#8B97A8;stroke-width:0.6005;stroke-miterlimit:10;}
</style>
<rect x="-85.4" y="-48" class="st0" width="1024.8" height="576"/>
<path class="st1" d="M64.2,26.8c0-3.3-2.7-6-6-6c-10.4,0-20.8,0-31.2,0c-3.3,0-6,2.7-6,6c0,5.2,0,10.4,0,15.6c0,3.3,2.7,6,6,6
	c10.4,0,20.8,0,31.2,0c3.3,0,6-2.7,6-6C64.2,37.2,64.2,32,64.2,26.8z"/>
<path class="st0" d="M43.2,40.6c0-0.8,0-1.6,0-2.4c-1.6,0-3.3,0-4.9,0c0-0.7,0-1.3,0-2c1.7-2.5,3.5-5.1,5.2-7.6c0.6,0,1.3,0,1.9,0
	c0,2.5,0,5.1,0,7.6c0.5,0,1,0,1.5,0c0,0.7,0,1.3,0,2c-0.5,0-1,0-1.5,0c0,0.8,0,1.6,0,2.4C44.7,40.6,44,40.6,43.2,40.6z M43.2,36.2
	c0-1.4,0-2.7,0-4.1c-0.9,1.4-1.8,2.7-2.7,4.1C41.4,36.2,42.3,36.2,43.2,36.2z"/>
<path class="st2" d="M87,35.9c0-0.5,0-0.9,0-1.4c1.7,0,3.4,0,5.1,0c0,1.5,0,2.9,0,4.4c-0.8,0.6-1.6,1.1-2.4,1.4
	c-0.8,0.3-1.7,0.5-2.5,0.5c-1.2,0-2.2-0.2-3.2-0.8c-0.9-0.5-1.7-1.2-2.2-2.2c-0.5-0.9-0.7-2-0.7-3.2c0-1.2,0.2-2.3,0.7-3.3
	c0.5-1,1.2-1.7,2.1-2.2c0.9-0.5,2-0.7,3.1-0.7c0.9,0,1.7,0.1,2.3,0.4c0.7,0.3,1.2,0.7,1.6,1.2s0.7,1.1,0.9,2
	c-0.5,0.1-0.9,0.3-1.4,0.4c-0.2-0.6-0.4-1.1-0.7-1.4c-0.3-0.4-0.6-0.6-1.1-0.8c-0.5-0.2-1-0.3-1.6-0.3c-0.7,0-1.3,0.1-1.9,0.3
	c-0.5,0.2-0.9,0.5-1.3,0.9c-0.3,0.4-0.6,0.8-0.8,1.2c-0.3,0.7-0.4,1.5-0.4,2.4c0,1.1,0.2,2,0.5,2.7c0.4,0.7,0.9,1.3,1.6,1.6
	c0.7,0.4,1.4,0.5,2.2,0.5c0.7,0,1.4-0.1,2-0.4c0.7-0.3,1.1-0.5,1.5-0.8c0-0.7,0-1.5,0-2.2C89.4,35.9,88.2,35.9,87,35.9z"/>
<path class="st2" d="M93.4,40.6c0-4,0-8,0-11.9c0.5,0,1.1,0,1.6,0c0,3.5,0,7,0,10.5c2,0,3.9,0,5.9,0c0,0.5,0,0.9,0,1.4
	C98.4,40.6,95.9,40.6,93.4,40.6z"/>
<path class="st2" d="M101.2,40.6c1.5-4,3.1-8,4.6-11.9c0.6,0,1.1,0,1.7,0c1.6,4,3.3,8,4.9,11.9c-0.6,0-1.2,0-1.8,0
	c-0.5-1.2-0.9-2.4-1.4-3.6c-1.7,0-3.3,0-5,0c-0.4,1.2-0.9,2.4-1.3,3.6C102.3,40.6,101.7,40.6,101.2,40.6z M104.6,35.7
	c1.3,0,2.7,0,4,0c-0.4-1.1-0.8-2.2-1.2-3.3c-0.4-1-0.7-1.8-0.9-2.5c-0.2,0.8-0.4,1.5-0.6,2.3C105.5,33.4,105.1,34.5,104.6,35.7z"/>
<path class="st2" d="M114.5,40.6c0-4,0-8,0-11.9c0.5,0,1.1,0,1.6,0c2.1,3.1,4.2,6.2,6.3,9.4c0-3.1,0-6.2,0-9.4c0.5,0,1,0,1.5,0
	c0,4,0,8,0,11.9c-0.5,0-1.1,0-1.6,0c-2.1-3.1-4.2-6.3-6.3-9.4c0,3.1,0,6.3,0,9.4C115.5,40.6,115,40.6,114.5,40.6z"/>
<path class="st2" d="M135,36.4c0.5,0.1,1.1,0.3,1.6,0.4c-0.3,1.3-0.9,2.3-1.8,3c-0.9,0.7-1.9,1-3.2,1c-1.3,0-2.3-0.3-3.1-0.8
	c-0.8-0.5-1.4-1.3-1.8-2.3c-0.4-1-0.6-2.1-0.6-3.2c0-1.2,0.2-2.3,0.7-3.2c0.5-0.9,1.2-1.6,2-2.1c0.9-0.5,1.8-0.7,2.9-0.7
	c1.2,0,2.2,0.3,3,0.9c0.8,0.6,1.4,1.5,1.7,2.6c-0.5,0.1-1,0.2-1.6,0.4c-0.3-0.9-0.7-1.5-1.2-1.9c-0.5-0.4-1.2-0.6-2-0.6
	c-0.9,0-1.7,0.2-2.3,0.7c-0.6,0.4-1,1-1.3,1.8c-0.3,0.7-0.4,1.5-0.4,2.3c0,1,0.1,1.9,0.4,2.6c0.3,0.8,0.8,1.3,1.4,1.7
	c0.6,0.4,1.3,0.6,2,0.6c0.9,0,1.6-0.3,2.3-0.8C134.4,38.2,134.8,37.4,135,36.4z"/>
<path class="st2" d="M138.5,40.6c0-4,0-8,0-11.9c2.9,0,5.8,0,8.6,0c0,0.5,0,0.9,0,1.4c-2.4,0-4.7,0-7.1,0c0,1.2,0,2.4,0,3.7
	c2.2,0,4.4,0,6.6,0c0,0.5,0,0.9,0,1.4c-2.2,0-4.4,0-6.6,0c0,1.4,0,2.7,0,4.1c2.4,0,4.9,0,7.3,0c0,0.5,0,0.9,0,1.4
	C144.5,40.6,141.5,40.6,138.5,40.6z"/>
<path class="st2" d="M162,39.5c-0.5,0.5-1.1,0.8-1.6,1c-0.5,0.2-1,0.3-1.6,0.3c-0.9,0-1.7-0.2-2.2-0.7c-0.5-0.5-0.8-1.1-0.8-1.8
	c0-0.4,0.1-0.8,0.3-1.2c0.2-0.4,0.4-0.6,0.8-0.8c0.3-0.2,0.7-0.4,1.1-0.5c0.3-0.1,0.7-0.2,1.3-0.2c1.2-0.1,2.1-0.3,2.6-0.5
	c0-0.2,0-0.3,0-0.4c0-0.6-0.1-1-0.4-1.3c-0.4-0.3-0.9-0.5-1.7-0.5c-0.7,0-1.2,0.1-1.5,0.4c-0.3,0.2-0.6,0.7-0.7,1.3
	c-0.5-0.1-1-0.1-1.4-0.2c0.1-0.6,0.3-1.1,0.6-1.5c0.3-0.4,0.7-0.7,1.3-0.9c0.6-0.2,1.2-0.3,2-0.3c0.7,0,1.3,0.1,1.8,0.3
	s0.8,0.4,1,0.7c0.2,0.3,0.4,0.6,0.5,1c0,0.2,0.1,0.7,0.1,1.3c0,0.7,0,1.3,0,2c0,1.4,0,2.2,0.1,2.6c0.1,0.4,0.2,0.7,0.4,1
	c-0.5,0-1,0-1.5,0C162.1,40.3,162,40,162,39.5z M161.9,36.3c-0.5,0.2-1.3,0.4-2.4,0.6c-0.6,0.1-1,0.2-1.3,0.3
	c-0.2,0.1-0.4,0.3-0.6,0.5c-0.1,0.2-0.2,0.4-0.2,0.7c0,0.4,0.1,0.7,0.4,1c0.3,0.3,0.7,0.4,1.3,0.4c0.6,0,1.1-0.1,1.5-0.4
	c0.4-0.2,0.8-0.6,1-1c0.2-0.3,0.2-0.8,0.2-1.5C161.9,36.6,161.9,36.4,161.9,36.3z"/>
<path class="st2" d="M165.3,40.6c0-2.9,0-5.8,0-8.7c0.4,0,0.9,0,1.3,0c0,0.4,0,0.9,0,1.3c0.3-0.6,0.6-1,0.9-1.2
	c0.3-0.2,0.6-0.3,1-0.3c0.5,0,1,0.2,1.5,0.5c-0.2,0.5-0.3,0.9-0.5,1.4c-0.4-0.2-0.7-0.3-1.1-0.3c-0.3,0-0.6,0.1-0.9,0.3
	c-0.3,0.2-0.4,0.5-0.6,0.8c-0.2,0.5-0.2,1.1-0.2,1.7c0,1.5,0,3,0,4.5C166.3,40.6,165.8,40.6,165.3,40.6z"/>
<path class="st2" d="M177,37.4c0.5,0.1,1,0.1,1.4,0.2c-0.2,1-0.6,1.8-1.2,2.3c-0.6,0.6-1.4,0.8-2.4,0.8c-1.2,0-2.1-0.4-2.9-1.2
	c-0.7-0.8-1.1-1.9-1.1-3.3c0-0.9,0.2-1.7,0.5-2.4c0.3-0.7,0.8-1.2,1.4-1.6c0.6-0.4,1.3-0.5,2.1-0.5c0.9,0,1.7,0.2,2.3,0.7
	c0.6,0.5,1,1.2,1.2,2c-0.5,0.1-0.9,0.1-1.4,0.2c-0.1-0.6-0.4-1-0.7-1.3c-0.3-0.3-0.8-0.4-1.2-0.4c-0.7,0-1.3,0.3-1.8,0.8
	c-0.5,0.5-0.7,1.4-0.7,2.5c0,1.2,0.2,2,0.7,2.5c0.4,0.5,1,0.8,1.7,0.8c0.6,0,1.1-0.2,1.4-0.5C176.6,38.7,176.9,38.2,177,37.4z"/>
<path class="st2" d="M180.4,40.6c0-4,0-8,0-11.9c0.5,0,1,0,1.5,0c0,1.4,0,2.9,0,4.3c0.7-0.8,1.6-1.2,2.6-1.2c0.6,0,1.2,0.1,1.7,0.4
	c0.5,0.3,0.8,0.6,1,1c0.2,0.4,0.3,1.1,0.3,1.9c0,1.8,0,3.7,0,5.5c-0.5,0-1,0-1.5,0c0-1.8,0-3.7,0-5.5c0-0.7-0.2-1.3-0.5-1.6
	c-0.3-0.3-0.8-0.5-1.3-0.5c-0.4,0-0.8,0.1-1.2,0.3c-0.4,0.2-0.7,0.5-0.8,0.9c-0.2,0.4-0.2,0.9-0.2,1.6c0,1.6,0,3.2,0,4.7
	C181.3,40.6,180.8,40.6,180.4,40.6z"/>
<path class="st2" d="M189.4,30.4c0-0.6,0-1.1,0-1.7c0.5,0,1,0,1.5,0c0,0.6,0,1.1,0,1.7C190.3,30.4,189.8,30.4,189.4,30.4z
	 M189.4,40.6c0-2.9,0-5.8,0-8.7c0.5,0,1,0,1.5,0c0,2.9,0,5.8,0,8.7C190.3,40.6,189.8,40.6,189.4,40.6z"/>
<path class="st2" d="M195.6,39.3c0.1,0.4,0.1,0.9,0.2,1.3c-0.4,0.1-0.8,0.1-1.1,0.1c-0.5,0-0.9-0.1-1.2-0.3
	c-0.3-0.2-0.5-0.4-0.6-0.7c-0.1-0.3-0.2-0.9-0.2-1.7c0-1.7,0-3.3,0-5c-0.4,0-0.7,0-1.1,0c0-0.4,0-0.8,0-1.1c0.4,0,0.7,0,1.1,0
	c0-0.7,0-1.4,0-2.1c0.5-0.3,1-0.6,1.5-0.9c0,1,0,2,0,3c0.5,0,1,0,1.5,0c0,0.4,0,0.8,0,1.1c-0.5,0-1,0-1.5,0c0,1.7,0,3.4,0,5.1
	c0,0.4,0,0.7,0.1,0.8c0,0.1,0.1,0.2,0.2,0.3s0.3,0.1,0.5,0.1C195.1,39.4,195.3,39.3,195.6,39.3z"/>
<path class="st2" d="M204.3,37.8c0.5,0.1,1,0.1,1.5,0.2c-0.2,0.9-0.7,1.6-1.3,2.1s-1.5,0.7-2.5,0.7c-1.3,0-2.3-0.4-3-1.2
	s-1.1-1.9-1.1-3.3c0-1.5,0.4-2.6,1.1-3.4c0.8-0.8,1.7-1.2,2.9-1.2c1.2,0,2.1,0.4,2.8,1.2c0.7,0.8,1.1,1.9,1.1,3.3c0,0.1,0,0.2,0,0.4
	c-2.1,0-4.3,0-6.4,0c0.1,0.9,0.3,1.7,0.8,2.2c0.5,0.5,1.1,0.8,1.8,0.8c0.5,0,1-0.1,1.4-0.4C203.8,38.9,204.1,38.4,204.3,37.8z
	 M199.5,35.4c1.6,0,3.2,0,4.8,0c-0.1-0.7-0.2-1.3-0.6-1.6c-0.5-0.6-1.1-0.8-1.8-0.8c-0.7,0-1.2,0.2-1.7,0.7
	C199.8,34.1,199.5,34.7,199.5,35.4z"/>
<path class="st2" d="M213,37.4c0.5,0.1,1,0.1,1.4,0.2c-0.2,1-0.6,1.8-1.2,2.3c-0.6,0.6-1.4,0.8-2.4,0.8c-1.2,0-2.1-0.4-2.8-1.2
	c-0.7-0.8-1.1-1.9-1.1-3.3c0-0.9,0.2-1.7,0.5-2.4c0.3-0.7,0.8-1.2,1.4-1.6c0.6-0.4,1.3-0.5,2.1-0.5c0.9,0,1.7,0.2,2.3,0.7
	c0.6,0.5,1,1.2,1.1,2c-0.5,0.1-0.9,0.1-1.4,0.2c-0.1-0.6-0.4-1-0.7-1.3c-0.3-0.3-0.8-0.4-1.2-0.4c-0.7,0-1.3,0.3-1.8,0.8
	c-0.5,0.5-0.7,1.4-0.7,2.5c0,1.2,0.2,2,0.7,2.5c0.4,0.5,1,0.8,1.7,0.8c0.6,0,1.1-0.2,1.4-0.5C212.7,38.7,212.9,38.2,213,37.4z"/>
<path class="st2" d="M219.6,39.3c0.1,0.4,0.1,0.9,0.2,1.3c-0.4,0.1-0.8,0.1-1.1,0.1c-0.5,0-0.9-0.1-1.2-0.3
	c-0.3-0.2-0.5-0.4-0.6-0.7c-0.1-0.3-0.2-0.9-0.2-1.7c0-1.7,0-3.3,0-5c-0.4,0-0.7,0-1.1,0c0-0.4,0-0.8,0-1.1c0.4,0,0.7,0,1.1,0
	c0-0.7,0-1.4,0-2.1c0.5-0.3,1-0.6,1.5-0.9c0,1,0,2,0,3c0.5,0,1,0,1.5,0c0,0.4,0,0.8,0,1.1c-0.5,0-1,0-1.5,0c0,1.7,0,3.4,0,5.1
	c0,0.4,0,0.7,0.1,0.8c0,0.1,0.1,0.2,0.2,0.3s0.3,0.1,0.5,0.1C219.1,39.4,219.3,39.3,219.6,39.3z"/>
<path class="st2" d="M228.1,40.6c0-0.4,0-0.8,0-1.3c-0.7,1-1.6,1.5-2.7,1.5c-0.5,0-1-0.1-1.4-0.3c-0.4-0.2-0.8-0.4-1-0.7
	s-0.4-0.7-0.4-1.1c-0.1-0.3-0.1-0.7-0.1-1.4c0-1.8,0-3.6,0-5.4c0.5,0,1,0,1.5,0c0,1.6,0,3.2,0,4.8c0,0.8,0,1.3,0.1,1.5
	c0.1,0.4,0.3,0.7,0.6,0.9c0.3,0.2,0.7,0.3,1.1,0.3c0.4,0,0.9-0.1,1.2-0.3s0.7-0.5,0.8-0.9c0.2-0.4,0.2-0.9,0.2-1.7
	c0-1.5,0-3.1,0-4.6c0.5,0,1,0,1.5,0c0,2.9,0,5.8,0,8.7C228.9,40.6,228.5,40.6,228.1,40.6z"/>
<path class="st2" d="M231.4,40.6c0-2.9,0-5.8,0-8.7c0.4,0,0.9,0,1.3,0c0,0.4,0,0.9,0,1.3c0.3-0.6,0.6-1,0.9-1.2
	c0.3-0.2,0.6-0.3,0.9-0.3c0.5,0,1,0.2,1.5,0.5c-0.2,0.5-0.3,0.9-0.5,1.4c-0.4-0.2-0.7-0.3-1.1-0.3c-0.3,0-0.6,0.1-0.9,0.3
	c-0.3,0.2-0.4,0.5-0.6,0.8c-0.2,0.5-0.2,1.1-0.2,1.7c0,1.5,0,3,0,4.5C232.3,40.6,231.9,40.6,231.4,40.6z"/>
<path class="st2" d="M243.3,37.8c0.5,0.1,1,0.1,1.5,0.2c-0.2,0.9-0.7,1.6-1.3,2.1s-1.5,0.7-2.5,0.7c-1.3,0-2.3-0.4-3-1.2
	c-0.7-0.8-1.1-1.9-1.1-3.3c0-1.5,0.4-2.6,1.1-3.4c0.8-0.8,1.7-1.2,2.9-1.2c1.1,0,2.1,0.4,2.8,1.2c0.7,0.8,1.1,1.9,1.1,3.3
	c0,0.1,0,0.2,0,0.4c-2.1,0-4.3,0-6.4,0c0.1,0.9,0.3,1.7,0.8,2.2c0.5,0.5,1.1,0.8,1.8,0.8c0.5,0,1-0.1,1.4-0.4
	C242.8,38.9,243.1,38.4,243.3,37.8z M238.5,35.4c1.6,0,3.2,0,4.8,0c-0.1-0.7-0.2-1.3-0.6-1.6c-0.5-0.6-1.1-0.8-1.8-0.8
	c-0.7,0-1.2,0.2-1.7,0.7C238.8,34.1,238.5,34.7,238.5,35.4z"/>
<path class="st3" d="M314.6,26.8c0-3.3-2.7-6-6-6c-8.4,0-16.8,0-25.2,0c-3.3,0-6,2.7-6,6c0,3.6,0,7.2,0,10.8c0,3.3,2.7,6,6,6
	c8.4,0,16.8,0,25.2,0c3.3,0,6-2.7,6-6C314.6,34,314.6,30.4,314.6,26.8z"/>
<path class="st0" d="M295.4,35.9c0,0.7,0,1.4,0,2.1c-2.7,0-5.4,0-8,0c0.1-0.8,0.4-1.6,0.8-2.3c0.4-0.7,1.3-1.7,2.6-2.9
	c1-1,1.7-1.6,1.9-2c0.3-0.5,0.5-0.9,0.5-1.4c0-0.5-0.1-0.9-0.4-1.2c-0.3-0.3-0.7-0.4-1.1-0.4c-0.5,0-0.9,0.1-1.2,0.4
	c-0.3,0.3-0.4,0.8-0.5,1.4c-0.8-0.1-1.5-0.2-2.3-0.2c0.1-1.3,0.6-2.2,1.3-2.7s1.6-0.8,2.7-0.8c1.2,0,2.1,0.3,2.8,0.9
	c0.7,0.6,1,1.4,1,2.4c0,0.5-0.1,1.1-0.3,1.5c-0.2,0.5-0.5,1-0.9,1.5c-0.3,0.4-0.8,0.9-1.5,1.5c-0.7,0.7-1.2,1.1-1.4,1.3
	c-0.2,0.2-0.4,0.4-0.5,0.6C292.4,35.9,293.9,35.9,295.4,35.9z"/>
<path class="st0" d="M304.5,29c-0.7,0.1-1.5,0.2-2.2,0.2c-0.1-0.5-0.2-0.8-0.4-1c-0.2-0.2-0.5-0.3-0.9-0.3c-0.5,0-0.9,0.2-1.2,0.7
	c-0.3,0.4-0.5,1.3-0.6,2.7c0.6-0.7,1.3-1,2.1-1c1,0,1.8,0.4,2.5,1.1s1,1.7,1,2.8c0,1.2-0.4,2.2-1.1,2.9s-1.6,1.1-2.8,1.1
	c-1.2,0-2.2-0.5-3-1.4c-0.8-0.9-1.2-2.5-1.2-4.6c0-2.2,0.4-3.8,1.2-4.7c0.8-1,1.9-1.4,3.2-1.4c0.9,0,1.7,0.2,2.3,0.8
	C303.9,27.3,304.3,28.1,304.5,29z M299.3,34c0,0.7,0.2,1.3,0.5,1.7c0.3,0.4,0.7,0.6,1.2,0.6c0.4,0,0.8-0.2,1.1-0.5s0.4-0.9,0.4-1.6
	c0-0.8-0.2-1.3-0.5-1.7c-0.3-0.4-0.7-0.5-1.1-0.5c-0.4,0-0.8,0.2-1.1,0.5C299.4,32.8,299.3,33.4,299.3,34z"/>
<path class="st3" d="M327.9,39.3c0-6.8,0-13.5,0-20.3c2,0,4.1,0,6.1,0c1.2,4.6,2.5,9.2,3.7,13.9c1.2-4.6,2.4-9.2,3.6-13.9
	c2,0,4.1,0,6.1,0c0,6.8,0,13.5,0,20.3c-1.3,0-2.5,0-3.8,0c0-5.3,0-10.6,0-16c-1.3,5.3-2.7,10.6-4,16c-1.3,0-2.6,0-3.9,0
	c-1.3-5.3-2.7-10.6-4-16c0,5.3,0,10.6,0,16C330.4,39.3,329.1,39.3,327.9,39.3z"/>
<path class="st3" d="M360.4,34.6c1.3,0.2,2.6,0.4,3.9,0.6c-0.5,1.4-1.3,2.5-2.4,3.2c-1.1,0.8-2.4,1.1-4,1.1c-2.6,0-4.5-0.8-5.7-2.5
	c-1-1.3-1.5-3-1.5-5.1c0-2.4,0.6-4.4,1.9-5.7c1.3-1.4,2.9-2.1,4.8-2.1c2.2,0,3.9,0.7,5.2,2.2c1.3,1.4,1.9,3.7,1.8,6.6
	c-3.2,0-6.5,0-9.7,0c0,1.1,0.3,2.1,0.9,2.7c0.6,0.6,1.3,1,2.2,1c0.6,0,1.1-0.2,1.5-0.5C359.9,35.9,360.2,35.4,360.4,34.6z
	 M360.6,30.7c0-1.1-0.3-2-0.9-2.6c-0.6-0.6-1.2-0.9-2-0.9c-0.9,0-1.6,0.3-2.1,0.9s-0.8,1.5-0.8,2.5
	C356.8,30.7,358.7,30.7,360.6,30.7z"/>
<path class="st3" d="M370.6,39.3c-1.3,0-2.6,0-3.9,0c0-4.9,0-9.8,0-14.7c1.2,0,2.4,0,3.6,0c0,0.7,0,1.4,0,2.1c0.6-1,1.2-1.6,1.7-2
	s1.1-0.5,1.7-0.5c0.9,0,1.8,0.2,2.6,0.7c-0.4,1.1-0.8,2.3-1.2,3.4c-0.7-0.4-1.3-0.6-1.8-0.6c-0.5,0-1,0.2-1.4,0.5
	c-0.4,0.3-0.7,0.8-0.9,1.6c-0.2,0.8-0.3,2.4-0.3,4.9C370.6,36.3,370.6,37.8,370.6,39.3z"/>
<path class="st3" d="M378.6,40.3c1.5,0.2,3,0.4,4.4,0.5c0.1,0.5,0.2,0.9,0.5,1.1c0.4,0.3,1,0.4,1.8,0.4c1,0,1.8-0.2,2.3-0.5
	c0.3-0.2,0.6-0.5,0.8-1c0.1-0.3,0.2-0.9,0.2-1.8c0-0.7,0-1.4,0-2.1c-1.2,1.6-2.6,2.4-4.4,2.4c-2,0-3.5-0.8-4.7-2.5
	c-0.9-1.3-1.4-3-1.4-4.9c0-2.5,0.6-4.4,1.8-5.7c1.2-1.3,2.7-1.9,4.4-1.9c1.8,0,3.3,0.8,4.5,2.4c0-0.7,0-1.4,0-2.1c1.2,0,2.4,0,3.6,0
	c0,4.4,0,8.8,0,13.2c0,1.7-0.1,3-0.4,3.9c-0.3,0.9-0.7,1.5-1.2,2c-0.5,0.5-1.2,0.9-2.1,1.1c-0.9,0.3-1.9,0.4-3.3,0.4
	c-2.5,0-4.3-0.4-5.3-1.3c-1-0.9-1.6-1.9-1.6-3.2C378.6,40.6,378.6,40.5,378.6,40.3z M382,31.7c0,1.6,0.3,2.7,0.9,3.4
	c0.6,0.7,1.4,1.1,2.2,1.1c0.9,0,1.8-0.4,2.4-1.1c0.6-0.7,1-1.8,1-3.3c0-1.5-0.3-2.7-0.9-3.4c-0.6-0.7-1.4-1.1-2.4-1.1
	c-0.9,0-1.7,0.4-2.3,1.1C382.3,29.1,382,30.2,382,31.7z"/>
<path class="st3" d="M405.5,34.6c1.3,0.2,2.6,0.4,3.9,0.6c-0.5,1.4-1.3,2.5-2.4,3.2c-1.1,0.8-2.4,1.1-4,1.1c-2.6,0-4.5-0.8-5.7-2.5
	c-1-1.3-1.5-3-1.5-5.1c0-2.4,0.6-4.4,1.9-5.7c1.3-1.4,2.9-2.1,4.8-2.1c2.2,0,3.9,0.7,5.2,2.2c1.3,1.4,1.9,3.7,1.8,6.6
	c-3.2,0-6.5,0-9.7,0c0,1.1,0.3,2.1,0.9,2.7c0.6,0.6,1.3,1,2.2,1c0.6,0,1.1-0.2,1.5-0.5C404.9,35.9,405.2,35.4,405.5,34.6z
	 M405.7,30.7c0-1.1-0.3-2-0.9-2.6c-0.6-0.6-1.2-0.9-2-0.9c-0.9,0-1.6,0.3-2.1,0.9s-0.8,1.5-0.8,2.5
	C401.8,30.7,403.7,30.7,405.7,30.7z"/>
<path class="st3" d="M427.7,24.6c0,1,0,2.1,0,3.1c-0.9,0-1.8,0-2.6,0c0,2,0,3.9,0,5.9c0,1.2,0,1.9,0.1,2.1c0.1,0.2,0.2,0.4,0.4,0.5
	c0.2,0.1,0.4,0.2,0.7,0.2c0.4,0,0.9-0.1,1.6-0.4c0.1,1,0.2,2,0.3,3c-0.9,0.4-1.9,0.6-3.1,0.6c-0.7,0-1.3-0.1-1.9-0.4s-1-0.5-1.2-0.9
	c-0.3-0.4-0.4-0.9-0.5-1.5c-0.1-0.5-0.1-1.4-0.1-2.7c0-2.1,0-4.3,0-6.4c-0.6,0-1.2,0-1.8,0c0-1,0-2.1,0-3.1c0.6,0,1.2,0,1.8,0
	c0-1,0-1.9,0-2.9c1.3-0.8,2.6-1.5,3.9-2.3c0,1.7,0,3.5,0,5.2C425.9,24.6,426.8,24.6,427.7,24.6z"/>
<path class="st3" d="M433.8,19c0,2.5,0,5,0,7.5c1.3-1.5,2.8-2.2,4.5-2.2c0.9,0,1.7,0.2,2.4,0.5c0.7,0.3,1.3,0.8,1.6,1.3
	c0.4,0.5,0.6,1.1,0.8,1.7c0.1,0.6,0.2,1.6,0.2,2.9c0,2.9,0,5.8,0,8.6c-1.3,0-2.6,0-3.9,0c0-2.6,0-5.2,0-7.8c0-1.6-0.1-2.5-0.2-2.9
	c-0.1-0.4-0.4-0.7-0.8-1c-0.4-0.2-0.8-0.4-1.4-0.4c-0.6,0-1.2,0.2-1.7,0.5c-0.5,0.3-0.9,0.8-1.1,1.4s-0.4,1.6-0.4,2.8
	c0,2.5,0,4.9,0,7.4c-1.3,0-2.6,0-3.9,0c0-6.8,0-13.5,0-20.3C431.2,19,432.5,19,433.8,19z"/>
<path class="st3" d="M456.5,34.6c1.3,0.2,2.6,0.4,3.9,0.6c-0.5,1.4-1.3,2.5-2.4,3.2c-1.1,0.8-2.4,1.1-4,1.1c-2.6,0-4.5-0.8-5.7-2.5
	c-1-1.3-1.5-3-1.5-5.1c0-2.4,0.6-4.4,1.9-5.7c1.3-1.4,2.9-2.1,4.8-2.1c2.2,0,3.9,0.7,5.2,2.2c1.3,1.4,1.9,3.7,1.8,6.6
	c-3.2,0-6.5,0-9.7,0c0,1.1,0.3,2.1,0.9,2.7c0.6,0.6,1.3,1,2.2,1c0.6,0,1.1-0.2,1.5-0.5C456,35.9,456.3,35.4,456.5,34.6z M456.7,30.7
	c0-1.1-0.3-2-0.9-2.6s-1.2-0.9-2-0.9c-0.9,0-1.6,0.3-2.1,0.9s-0.8,1.5-0.8,2.5C452.8,30.7,454.8,30.7,456.7,30.7z"/>
<path class="st3" d="M478.7,24.6c0,1,0,2.1,0,3.1c-0.9,0-1.8,0-2.6,0c0,2,0,3.9,0,5.9c0,1.2,0,1.9,0.1,2.1c0.1,0.2,0.2,0.4,0.4,0.5
	c0.2,0.1,0.4,0.2,0.7,0.2c0.4,0,0.9-0.1,1.6-0.4c0.1,1,0.2,2,0.3,3c-0.9,0.4-1.9,0.6-3.1,0.6c-0.7,0-1.3-0.1-1.9-0.4s-1-0.5-1.2-0.9
	c-0.3-0.4-0.4-0.9-0.5-1.5c-0.1-0.5-0.1-1.4-0.1-2.7c0-2.1,0-4.3,0-6.4c-0.6,0-1.2,0-1.8,0c0-1,0-2.1,0-3.1c0.6,0,1.2,0,1.8,0
	c0-1,0-1.9,0-2.9c1.3-0.8,2.6-1.5,3.9-2.3c0,1.7,0,3.5,0,5.2C477,24.6,477.9,24.6,478.7,24.6z"/>
<path class="st3" d="M484.9,19c0,2.5,0,5,0,7.5c1.3-1.5,2.8-2.2,4.5-2.2c0.9,0,1.7,0.2,2.4,0.5c0.7,0.3,1.3,0.8,1.6,1.3
	c0.4,0.5,0.6,1.1,0.8,1.7c0.1,0.6,0.2,1.6,0.2,2.9c0,2.9,0,5.8,0,8.6c-1.3,0-2.6,0-3.9,0c0-2.6,0-5.2,0-7.8c0-1.6-0.1-2.5-0.2-2.9
	c-0.1-0.4-0.4-0.7-0.8-1c-0.4-0.2-0.8-0.4-1.4-0.4c-0.6,0-1.2,0.2-1.7,0.5s-0.9,0.8-1.1,1.4s-0.4,1.6-0.4,2.8c0,2.5,0,4.9,0,7.4
	c-1.3,0-2.6,0-3.9,0c0-6.8,0-13.5,0-20.3C482.3,19,483.6,19,484.9,19z"/>
<path class="st3" d="M502.7,39.3c-1.3,0-2.6,0-3.9,0c0-4.9,0-9.8,0-14.7c1.2,0,2.4,0,3.6,0c0,0.7,0,1.4,0,2.1c0.6-1,1.2-1.6,1.7-2
	s1.1-0.5,1.7-0.5c0.9,0,1.7,0.2,2.6,0.7c-0.4,1.1-0.8,2.3-1.2,3.4c-0.7-0.4-1.3-0.6-1.8-0.6c-0.5,0-1,0.2-1.4,0.5
	c-0.4,0.3-0.7,0.8-0.9,1.6c-0.2,0.8-0.3,2.4-0.3,4.9C502.7,36.3,502.7,37.8,502.7,39.3z"/>
<path class="st3" d="M519.5,34.6c1.3,0.2,2.6,0.4,3.9,0.6c-0.5,1.4-1.3,2.5-2.4,3.2c-1.1,0.8-2.4,1.1-4,1.1c-2.6,0-4.5-0.8-5.7-2.5
	c-1-1.3-1.5-3-1.5-5.1c0-2.4,0.6-4.4,1.9-5.7c1.3-1.4,2.9-2.1,4.8-2.1c2.2,0,3.9,0.7,5.2,2.2c1.3,1.4,1.9,3.7,1.8,6.6
	c-3.2,0-6.5,0-9.7,0c0,1.1,0.3,2.1,0.9,2.7c0.6,0.6,1.4,1,2.2,1c0.6,0,1.1-0.2,1.5-0.5C519,35.9,519.3,35.4,519.5,34.6z M519.8,30.7
	c0-1.1-0.3-2-0.9-2.6s-1.2-0.9-2-0.9c-0.9,0-1.6,0.3-2.1,0.9c-0.6,0.6-0.8,1.5-0.8,2.5C515.9,30.7,517.8,30.7,519.8,30.7z"/>
<path class="st3" d="M534.6,34.6c1.3,0.2,2.6,0.4,3.9,0.6c-0.5,1.4-1.3,2.5-2.4,3.2c-1.1,0.8-2.4,1.1-4,1.1c-2.6,0-4.5-0.8-5.7-2.5
	c-1-1.3-1.5-3-1.5-5.1c0-2.4,0.6-4.4,1.9-5.7c1.3-1.4,2.9-2.1,4.8-2.1c2.2,0,3.9,0.7,5.2,2.2c1.3,1.4,1.9,3.7,1.8,6.6
	c-3.2,0-6.5,0-9.7,0c0,1.1,0.3,2.1,0.9,2.7c0.6,0.6,1.4,1,2.2,1c0.6,0,1.1-0.2,1.5-0.5C534,35.9,534.3,35.4,534.6,34.6z M534.8,30.7
	c0-1.1-0.3-2-0.9-2.6s-1.2-0.9-2-0.9c-0.9,0-1.6,0.3-2.1,0.9c-0.6,0.6-0.8,1.5-0.8,2.5C530.9,30.7,532.8,30.7,534.8,30.7z"/>
<path class="st3" d="M550.2,39.3c0-6.7,0-13.4,0-20.1c1.4,0,2.7,0,4.1,0c0,5.6,0,11.1,0,16.7c3.4,0,6.8,0,10.2,0c0,1.1,0,2.3,0,3.4
	C559.7,39.3,555,39.3,550.2,39.3z"/>
<path class="st3" d="M568.2,39.3c0-6.7,0-13.4,0-20.1c1.4,0,2.7,0,4.1,0c0,5.6,0,11.1,0,16.7c3.4,0,6.8,0,10.2,0c0,1.1,0,2.3,0,3.4
	C577.7,39.3,573,39.3,568.2,39.3z"/>
<path class="st3" d="M586.1,39.3c0-6.8,0-13.5,0-20.3c2,0,4.1,0,6.1,0c1.2,4.6,2.5,9.2,3.7,13.9c1.2-4.6,2.4-9.2,3.6-13.9
	c2.1,0,4.1,0,6.1,0c0,6.8,0,13.5,0,20.3c-1.3,0-2.5,0-3.8,0c0-5.3,0-10.6,0-16c-1.3,5.3-2.7,10.6-4,16c-1.3,0-2.6,0-4,0
	c-1.3-5.3-2.7-10.6-4-16c0,5.3,0,10.6,0,16C588.6,39.3,587.3,39.3,586.1,39.3z"/>
<path class="st3" d="M627.6,34.6c1.3,0.2,2.6,0.4,3.9,0.6c-0.5,1.4-1.3,2.5-2.4,3.2c-1.1,0.8-2.4,1.1-4,1.1c-2.6,0-4.5-0.8-5.7-2.5
	c-1-1.3-1.5-3-1.5-5.1c0-2.4,0.6-4.4,1.9-5.7c1.3-1.4,2.9-2.1,4.8-2.1c2.2,0,3.9,0.7,5.2,2.2c1.3,1.4,1.9,3.7,1.8,6.6
	c-3.2,0-6.5,0-9.7,0c0,1.1,0.3,2.1,0.9,2.7c0.6,0.6,1.3,1,2.2,1c0.6,0,1.1-0.2,1.5-0.5C627.1,35.9,627.4,35.4,627.6,34.6z
	 M627.8,30.7c0-1.1-0.3-2-0.9-2.6s-1.2-0.9-2-0.9c-0.9,0-1.6,0.3-2.1,0.9s-0.8,1.5-0.8,2.5C624,30.7,625.9,30.7,627.8,30.7z"/>
<path class="st3" d="M633.8,24.6c1.2,0,2.4,0,3.6,0c0,0.7,0,1.3,0,2c1.3-1.6,2.8-2.3,4.6-2.3c0.9,0,1.8,0.2,2.4,0.6
	c0.7,0.4,1.3,1,1.7,1.8c0.6-0.8,1.3-1.4,2.1-1.8c0.7-0.4,1.5-0.6,2.4-0.6c1.1,0,2,0.2,2.7,0.7c0.7,0.4,1.3,1.1,1.7,1.9
	c0.3,0.6,0.4,1.6,0.4,3c0,3.1,0,6.3,0,9.4c-1.3,0-2.6,0-3.9,0c0-2.8,0-5.6,0-8.4c0-1.5-0.1-2.4-0.4-2.8c-0.4-0.6-0.9-0.8-1.7-0.8
	c-0.5,0-1.1,0.2-1.5,0.5c-0.5,0.3-0.8,0.8-1,1.5c-0.2,0.6-0.3,1.7-0.3,3c0,2.4,0,4.7,0,7.1c-1.3,0-2.6,0-3.9,0c0-2.7,0-5.4,0-8.1
	c0-1.4-0.1-2.4-0.2-2.8c-0.1-0.4-0.4-0.7-0.6-0.9c-0.3-0.2-0.7-0.3-1.2-0.3c-0.6,0-1.1,0.2-1.6,0.5c-0.5,0.3-0.8,0.8-1,1.4
	s-0.3,1.6-0.3,3c0,2.4,0,4.8,0,7.1c-1.3,0-2.6,0-3.9,0C633.8,34.4,633.8,29.5,633.8,24.6z"/>
<path class="st3" d="M658,39.3c0-6.8,0-13.5,0-20.3c1.3,0,2.6,0,3.9,0c0,2.4,0,4.9,0,7.3c1.2-1.4,2.6-2.1,4.3-2.1
	c1.8,0,3.3,0.6,4.4,1.9c1.2,1.3,1.8,3.2,1.8,5.6c0,2.5-0.6,4.4-1.8,5.8c-1.2,1.3-2.7,2-4.4,2c-0.8,0-1.7-0.2-2.5-0.6
	c-0.8-0.4-1.5-1-2.1-1.9c0,0.7,0,1.4,0,2.2C660.4,39.3,659.2,39.3,658,39.3z M661.8,31.7c0,1.5,0.2,2.6,0.7,3.4
	c0.7,1,1.6,1.6,2.7,1.6c0.9,0,1.6-0.4,2.2-1.1c0.6-0.7,0.9-1.9,0.9-3.5c0-1.7-0.3-2.9-0.9-3.6c-0.6-0.8-1.4-1.1-2.3-1.1
	c-0.9,0-1.7,0.4-2.3,1.1C662.1,29.1,661.8,30.2,661.8,31.7z"/>
<path class="st3" d="M684.7,34.6c1.3,0.2,2.6,0.4,3.9,0.6c-0.5,1.4-1.3,2.5-2.4,3.2c-1.1,0.8-2.4,1.1-4,1.1c-2.6,0-4.5-0.8-5.7-2.5
	c-1-1.3-1.5-3-1.5-5.1c0-2.4,0.6-4.4,1.9-5.7c1.3-1.4,2.9-2.1,4.8-2.1c2.2,0,3.9,0.7,5.2,2.2c1.3,1.4,1.9,3.7,1.8,6.6
	c-3.2,0-6.5,0-9.7,0c0,1.1,0.3,2.1,0.9,2.7c0.6,0.6,1.4,1,2.2,1c0.6,0,1.1-0.2,1.5-0.5C684.1,35.9,684.5,35.4,684.7,34.6z
	 M684.9,30.7c0-1.1-0.3-2-0.9-2.6s-1.2-0.9-2-0.9c-0.9,0-1.6,0.3-2.1,0.9c-0.6,0.6-0.8,1.5-0.8,2.5C681,30.7,683,30.7,684.9,30.7z"
	/>
<path class="st3" d="M704.6,39.3c-1.2,0-2.4,0-3.6,0c0-0.7,0-1.4,0-2.2c-0.6,0.8-1.3,1.5-2.1,1.9s-1.6,0.6-2.5,0.6
	c-1.7,0-3.1-0.7-4.3-2c-1.2-1.4-1.8-3.3-1.8-5.7c0-2.5,0.6-4.4,1.8-5.7c1.2-1.3,2.6-1.9,4.4-1.9c1.6,0,3.1,0.7,4.3,2.1
	c0-2.4,0-4.9,0-7.3c1.3,0,2.6,0,3.9,0C704.6,25.8,704.6,32.6,704.6,39.3z M694.3,31.7c0,1.6,0.2,2.7,0.6,3.4c0.6,1,1.5,1.5,2.6,1.5
	c0.9,0,1.7-0.4,2.3-1.1c0.6-0.8,0.9-1.9,0.9-3.4c0-1.7-0.3-2.9-0.9-3.6c-0.6-0.8-1.4-1.1-2.3-1.1c-0.9,0-1.7,0.4-2.3,1.1
	C694.6,29.1,694.3,30.2,694.3,31.7z"/>
<path class="st3" d="M722.7,39.3c-1.2,0-2.4,0-3.6,0c0-0.7,0-1.4,0-2.2c-0.6,0.8-1.3,1.5-2.1,1.9s-1.6,0.6-2.5,0.6
	c-1.7,0-3.1-0.7-4.3-2c-1.2-1.4-1.8-3.3-1.8-5.7c0-2.5,0.6-4.4,1.8-5.7c1.2-1.3,2.6-1.9,4.4-1.9c1.6,0,3.1,0.7,4.3,2.1
	c0-2.4,0-4.9,0-7.3c1.3,0,2.6,0,3.9,0C722.7,25.8,722.7,32.6,722.7,39.3z M712.3,31.7c0,1.6,0.2,2.7,0.6,3.4c0.6,1,1.5,1.5,2.6,1.5
	c0.9,0,1.7-0.4,2.3-1.1c0.6-0.8,0.9-1.9,0.9-3.4c0-1.7-0.3-2.9-0.9-3.6c-0.6-0.8-1.4-1.1-2.3-1.1c-0.9,0-1.7,0.4-2.3,1.1
	C712.6,29.1,712.3,30.2,712.3,31.7z"/>
<path class="st3" d="M727.2,22.6c0-1.2,0-2.4,0-3.6c1.3,0,2.6,0,3.9,0c0,1.2,0,2.4,0,3.6C729.8,22.6,728.5,22.6,727.2,22.6z
	 M727.2,39.3c0-4.9,0-9.8,0-14.7c1.3,0,2.6,0,3.9,0c0,4.9,0,9.8,0,14.7C729.8,39.3,728.5,39.3,727.2,39.3z"/>
<path class="st3" d="M749.6,39.3c-1.3,0-2.6,0-3.9,0c0-2.5,0-5,0-7.5c0-1.6-0.1-2.6-0.2-3.1c-0.2-0.5-0.4-0.8-0.8-1.1
	s-0.8-0.4-1.3-0.4c-0.7,0-1.3,0.2-1.8,0.6s-0.9,0.9-1.1,1.5s-0.3,1.7-0.3,3.4c0,2.2,0,4.4,0,6.7c-1.3,0-2.6,0-3.9,0
	c0-4.9,0-9.8,0-14.7c1.2,0,2.4,0,3.6,0c0,0.7,0,1.4,0,2.2c1.3-1.7,2.9-2.5,4.8-2.5c0.9,0,1.7,0.2,2.4,0.5c0.7,0.3,1.3,0.7,1.6,1.2
	c0.4,0.5,0.6,1,0.8,1.6c0.1,0.6,0.2,1.5,0.2,2.6C749.6,33.2,749.6,36.3,749.6,39.3z"/>
<path class="st3" d="M753.9,40.3c1.5,0.2,3,0.4,4.4,0.5c0.1,0.5,0.2,0.9,0.5,1.1c0.4,0.3,1,0.4,1.8,0.4c1,0,1.8-0.2,2.3-0.5
	c0.3-0.2,0.6-0.5,0.8-1c0.1-0.3,0.2-0.9,0.2-1.8c0-0.7,0-1.4,0-2.1c-1.2,1.6-2.6,2.4-4.4,2.4c-2,0-3.5-0.8-4.7-2.5
	c-0.9-1.3-1.4-3-1.4-4.9c0-2.5,0.6-4.4,1.8-5.7c1.2-1.3,2.7-1.9,4.4-1.9c1.8,0,3.3,0.8,4.5,2.4c0-0.7,0-1.4,0-2.1c1.2,0,2.4,0,3.6,0
	c0,4.4,0,8.8,0,13.2c0,1.7-0.1,3-0.4,3.9c-0.3,0.9-0.7,1.5-1.2,2c-0.5,0.5-1.2,0.9-2.1,1.1c-0.9,0.3-1.9,0.4-3.3,0.4
	c-2.5,0-4.3-0.4-5.3-1.3c-1-0.9-1.6-1.9-1.6-3.2C753.8,40.6,753.8,40.5,753.9,40.3z M757.3,31.7c0,1.6,0.3,2.7,0.9,3.4
	c0.6,0.7,1.4,1.1,2.2,1.1c0.9,0,1.8-0.4,2.4-1.1c0.6-0.7,1-1.8,1-3.3c0-1.5-0.3-2.7-0.9-3.4c-0.6-0.7-1.4-1.1-2.4-1.1
	c-0.9,0-1.7,0.4-2.3,1.1C757.6,29.1,757.3,30.2,757.3,31.7z"/>
<path class="st3" d="M770.9,35.1c1.3-0.2,2.6-0.4,3.9-0.6c0.2,0.8,0.5,1.3,1,1.7c0.5,0.4,1.2,0.6,2.1,0.6c1,0,1.8-0.2,2.3-0.6
	c0.3-0.3,0.5-0.6,0.5-1c0-0.3-0.1-0.5-0.3-0.7c-0.2-0.2-0.6-0.4-1.3-0.5c-3.1-0.7-5.1-1.3-6-1.9c-1.2-0.8-1.7-1.9-1.7-3.3
	c0-1.3,0.5-2.3,1.5-3.2c1-0.9,2.6-1.3,4.7-1.3c2,0,3.5,0.3,4.5,1c1,0.7,1.7,1.6,2,2.9c-1.2,0.2-2.4,0.5-3.7,0.7
	c-0.2-0.6-0.4-1-0.9-1.3c-0.4-0.3-1.1-0.5-1.9-0.5c-1,0-1.8,0.2-2.2,0.4c-0.3,0.2-0.4,0.5-0.4,0.8c0,0.3,0.1,0.5,0.4,0.7
	c0.4,0.3,1.6,0.6,3.6,1.1c2.1,0.5,3.5,1,4.3,1.7c0.8,0.7,1.2,1.7,1.2,2.9c0,1.3-0.6,2.5-1.7,3.5c-1.1,1-2.8,1.5-5,1.5
	c-2,0-3.6-0.4-4.8-1.2C772,37.6,771.2,36.5,770.9,35.1z"/>
<path class="st4" d="M24.7,58.7c268.2,0,536.4,0,804.6,0"/>
<g>
	<path class="st5" d="M235.7,192.8c-5.9,0-11.8,0-17.7,0c0,5.9,0,11.8,0,17.7c5.9,0,11.8,0,17.7,0
		C235.7,204.6,235.7,198.7,235.7,192.8z"/>
	<path class="st6" d="M255.5,192.8c-5.9,0-11.8,0-17.7,0c0,5.9,0,11.8,0,17.7c5.9,0,11.8,0,17.7,0
		C255.5,204.6,255.5,198.7,255.5,192.8z"/>
	<path class="st5" d="M275.4,192.8c-5.9,0-11.8,0-17.7,0c0,5.9,0,11.8,0,17.7c5.9,0,11.8,0,17.7,0
		C275.4,204.6,275.4,198.7,275.4,192.8z"/>
	<path class="st6" d="M295.2,192.8c-5.9,0-11.8,0-17.7,0c0,5.9,0,11.8,0,17.7c5.9,0,11.8,0,17.7,0
		C295.2,204.6,295.2,198.7,295.2,192.8z"/>
	<path class="st5" d="M315,192.8c-5.9,0-11.8,0-17.7,0c0,5.9,0,11.8,0,17.7c5.9,0,11.8,0,17.7,0C315,204.6,315,198.7,315,192.8z"/>
	<path class="st6" d="M334.9,192.8c-5.9,0-11.8,0-17.7,0c0,5.9,0,11.8,0,17.7c5.9,0,11.8,0,17.7,0
		C334.9,204.6,334.9,198.7,334.9,192.8z"/>
	<path class="st5" d="M354.7,192.8c-5.9,0-11.8,0-17.7,0c0,5.9,0,11.8,0,17.7c5.9,0,11.8,0,17.7,0
		C354.7,204.6,354.7,198.7,354.7,192.8z"/>
	<path class="st7" d="M376.3,192.8c-5.9,0-11.8,0-17.7,0c0,5.9,0,11.8,0,17.7c5.9,0,11.8,0,17.7,0
		C376.3,204.6,376.3,198.7,376.3,192.8z"/>
	<path class="st8" d="M396.2,192.8c-5.9,0-11.8,0-17.7,0c0,5.9,0,11.8,0,17.7c5.9,0,11.8,0,17.7,0
		C396.2,204.6,396.2,198.7,396.2,192.8z"/>
	<path class="st7" d="M416,192.8c-5.9,0-11.8,0-17.7,0c0,5.9,0,11.8,0,17.7c5.9,0,11.8,0,17.7,0C416,204.6,416,198.7,416,192.8z"/>
	<path class="st8" d="M435.9,192.8c-5.9,0-11.8,0-17.7,0c0,5.9,0,11.8,0,17.7c5.9,0,11.8,0,17.7,0
		C435.9,204.6,435.9,198.7,435.9,192.8z"/>
	<path class="st7" d="M455.7,192.8c-5.9,0-11.8,0-17.7,0c0,5.9,0,11.8,0,17.7c5.9,0,11.8,0,17.7,0
		C455.7,204.6,455.7,198.7,455.7,192.8z"/>
	<path class="st8" d="M475.5,192.8c-5.9,0-11.8,0-17.7,0c0,5.9,0,11.8,0,17.7c5.9,0,11.8,0,17.7,0
		C475.5,204.6,475.5,198.7,475.5,192.8z"/>
	<path class="st7" d="M495.4,192.8c-5.9,0-11.8,0-17.7,0c0,5.9,0,11.8,0,17.7c5.9,0,11.8,0,17.7,0
		C495.4,204.6,495.4,198.7,495.4,192.8z"/>
	<path class="st9" d="M517,192.8c-5.9,0-11.8,0-17.7,0c0,5.9,0,11.8,0,17.7c5.9,0,11.8,0,17.7,0C517,204.6,517,198.7,517,192.8z"/>
	<path class="st10" d="M536.8,192.8c-5.9,0-11.8,0-17.7,0c0,5.9,0,11.8,0,17.7c5.9,0,11.8,0,17.7,0
		C536.8,204.6,536.8,198.7,536.8,192.8z"/>
	<path class="st9" d="M556.7,192.8c-5.9,0-11.8,0-17.7,0c0,5.9,0,11.8,0,17.7c5.9,0,11.8,0,17.7,0
		C556.7,204.6,556.7,198.7,556.7,192.8z"/>
	<path class="st10" d="M576.5,192.8c-5.9,0-11.8,0-17.7,0c0,5.9,0,11.8,0,17.7c5.9,0,11.8,0,17.7,0
		C576.5,204.6,576.5,198.7,576.5,192.8z"/>
	<path class="st9" d="M596.3,192.8c-5.9,0-11.8,0-17.7,0c0,5.9,0,11.8,0,17.7c5.9,0,11.8,0,17.7,0
		C596.3,204.6,596.3,198.7,596.3,192.8z"/>
	<path class="st10" d="M616.2,192.8c-5.9,0-11.8,0-17.7,0c0,5.9,0,11.8,0,17.7c5.9,0,11.8,0,17.7,0
		C616.2,204.6,616.2,198.7,616.2,192.8z"/>
	<path class="st9" d="M636,192.8c-5.9,0-11.8,0-17.7,0c0,5.9,0,11.8,0,17.7c5.9,0,11.8,0,17.7,0C636,204.6,636,198.7,636,192.8z"/>
	<path class="st3" d="M410.9,153.9c0-0.1,0.1-0.2,0.1-0.4c0-0.2-0.1-0.2-0.6-0.2c-3.4,0-6.8,0-10.3,0c-0.6,0-0.6,0-0.8,0.5
		c-0.4,1.5-0.9,2.9-1.3,4.4c0,0.1-0.1,0.3-0.1,0.3c0,0,0,0.3,0.3,0.3c0.2,0,0.3-0.2,0.3-0.2c0.9-2.9,2.2-4.5,6-4.5c1.3,0,2.6,0,4,0
		c-4.5,5.1-9.1,10.1-13.6,15.2c0,0-0.1,0.4-0.1,0.4c0,0.2,0.2,0.2,0.6,0.2c3.5,0,7.1,0,10.6,0c0.6,0,0.6,0,0.8-0.5
		c0.6-1.8,1.1-3.6,1.7-5.4c0-0.1,0.1-0.3,0.1-0.4c0-0.1-0.1-0.3-0.3-0.3s-0.2,0.1-0.4,0.6c-1.1,3.3-2.2,5.1-6.4,5.1
		c-1.4,0-2.8,0-4.2,0C401.8,164,406.3,159,410.9,153.9z"/>
	<path class="st3" d="M417,163.3c0.2-0.6,0.2-0.8,1.8-0.8c0.5,0,0.7,0,0.7-0.4c0,0,0-0.2-0.3-0.2c-0.4,0-0.9,0-1.3,0.1
		c-0.4,0-0.9,0-1.4,0c-0.4,0-0.8,0-1.2,0c-0.4,0-0.8-0.1-1.1-0.1c-0.1,0-0.4,0-0.4,0.4c0,0.2,0.2,0.2,0.5,0.2c0,0,0.3,0,0.6,0
		c0.4,0,0.4,0.1,0.4,0.2c0,0,0,0.1-0.1,0.4c-0.8,3-1.5,6-2.3,9c-0.2,0.6-0.2,0.7-1.5,0.7c-0.3,0-0.5,0-0.5,0.4
		c0,0.3,0.2,0.3,0.5,0.3c2.9,0,5.7,0,8.6,0c0.4,0,0.4,0,0.6-0.3c0.2-0.5,1.4-3.8,1.4-3.9c0-0.1,0-0.2-0.3-0.2
		c-0.2,0-0.2,0.1-0.3,0.4c-0.6,1.6-1.4,3.5-4.5,3.5c-0.6,0-1.3,0-1.9,0c-0.5,0-0.5,0-0.5-0.2c0,0,0-0.1,0.1-0.4
		C415.5,169.4,416.2,166.4,417,163.3z"/>
	<path class="st3" d="M432.6,175.7c0-0.1,0-0.1-0.4-0.5c-3-3.1-3.8-7.7-3.8-11.4c0-4.2,0.9-8.5,3.9-11.5c0.3-0.3,0.3-0.3,0.3-0.4
		c0-0.2-0.1-0.2-0.2-0.2c-0.2,0-2.4,1.7-3.9,4.7c-1.2,2.7-1.5,5.4-1.5,7.4c0,1.9,0.3,4.8,1.6,7.6c1.5,3,3.5,4.6,3.8,4.6
		C432.5,176,432.6,175.9,432.6,175.7z"/>
	<path class="st3" d="M438.3,167.1c-1,1.6-1.9,2-3,2c-0.3,0-0.5,0-0.5,0.5c0,0.1,0.1,0.3,0.3,0.3c0.7,0,1.4-0.1,2.1-0.1
		c0.8,0,1.7,0.1,2.4,0.1c0.1,0,0.5,0,0.5-0.5c0-0.3-0.2-0.3-0.4-0.3c-0.6,0-1.1-0.2-1.1-0.9c0-0.3,0.1-0.6,0.3-0.9
		c0.6-1,1.2-2.1,1.8-3.1c2,0,4.1,0,6.1,0c0,0.5,0.4,3.8,0.4,4.1c0,0.7-1.3,0.8-1.8,0.8c-0.3,0-0.6,0-0.6,0.5c0,0.3,0.3,0.3,0.3,0.3
		c1,0,2-0.1,3-0.1c0.6,0,2.1,0.1,2.7,0.1c0.1,0,0.4,0,0.4-0.5c0-0.3-0.2-0.3-0.6-0.3c-1.5,0-1.5-0.2-1.6-0.9
		c-0.5-5.1-1-10.1-1.5-15.2c-0.1-0.5-0.1-0.6-0.5-0.6c-0.4,0-0.5,0.2-0.6,0.4C444,157.6,441.1,162.4,438.3,167.1z M441.2,163.5
		c1.6-2.7,3.2-5.3,4.8-8c0.3,2.7,0.5,5.3,0.8,8C444.9,163.5,443.1,163.5,441.2,163.5z"/>
	<path class="st3" d="M459.2,163.8c0-1.9-0.3-4.8-1.6-7.6c-1.5-3-3.5-4.6-3.8-4.6c-0.1,0-0.2,0.1-0.2,0.2c0,0.1,0,0.1,0.5,0.6
		c2.4,2.4,3.8,6.3,3.8,11.4c0,4.2-0.9,8.4-3.9,11.5c-0.3,0.3-0.3,0.3-0.3,0.4c0,0.1,0.1,0.2,0.2,0.2c0.2,0,2.4-1.7,3.9-4.7
		C458.9,168.6,459.2,165.9,459.2,163.8z"/>
	<path class="st3" d="M258.3,305.4c0-0.1,0.1-0.2,0.1-0.4c0-0.2-0.1-0.2-0.6-0.2c-3.4,0-6.8,0-10.3,0c-0.6,0-0.6,0-0.8,0.5
		c-0.4,1.5-0.9,2.9-1.3,4.4c-0.1,0.1-0.1,0.3-0.1,0.3c0,0,0,0.3,0.3,0.3c0.2,0,0.3-0.2,0.3-0.2c0.9-2.9,2.2-4.5,6-4.5
		c1.3,0,2.6,0,4,0c-4.5,5.1-9.1,10.1-13.6,15.2c0,0-0.1,0.4-0.1,0.4c0,0.2,0.2,0.2,0.6,0.2c3.5,0,7,0,10.6,0c0.6,0,0.6,0,0.8-0.5
		c0.6-1.8,1.2-3.6,1.7-5.4c0-0.1,0.1-0.3,0.1-0.4c0-0.1-0.1-0.3-0.3-0.3s-0.2,0.1-0.4,0.6c-1.1,3.3-2.2,5.1-6.4,5.1
		c-1.4,0-2.8,0-4.2,0C249.3,315.5,253.8,310.4,258.3,305.4z"/>
	<path class="st3" d="M264.4,314.8c0.2-0.6,0.2-0.8,1.8-0.8c0.5,0,0.7,0,0.7-0.4c0,0,0-0.2-0.3-0.2c-0.4,0-0.8,0-1.3,0.1
		c-0.4,0-0.9,0-1.4,0c-0.4,0-0.8,0-1.2,0c-0.4,0-0.8-0.1-1.1-0.1c-0.1,0-0.4,0-0.4,0.4c0,0.2,0.2,0.2,0.5,0.2c0,0,0.3,0,0.6,0
		c0.4,0,0.4,0.1,0.4,0.2c0,0,0,0.1-0.1,0.4c-0.8,3-1.5,6-2.3,9c-0.2,0.6-0.2,0.7-1.5,0.7c-0.3,0-0.5,0-0.5,0.4
		c0,0.3,0.2,0.3,0.5,0.3c2.9,0,5.7,0,8.6,0c0.4,0,0.4,0,0.6-0.3c0.2-0.5,1.4-3.8,1.4-3.9c0-0.1,0-0.2-0.3-0.2
		c-0.2,0-0.2,0.1-0.3,0.4c-0.6,1.6-1.4,3.5-4.5,3.5c-0.6,0-1.3,0-1.9,0c-0.5,0-0.5,0-0.5-0.2c0,0,0-0.1,0.1-0.4
		C262.9,320.9,263.7,317.8,264.4,314.8z"/>
	<path class="st3" d="M280,327.2c0-0.1,0-0.1-0.4-0.5c-3-3.1-3.8-7.7-3.8-11.4c0-4.2,0.9-8.5,3.9-11.5c0.3-0.3,0.3-0.3,0.3-0.4
		c0-0.2-0.1-0.2-0.2-0.2c-0.2,0-2.4,1.7-3.9,4.7c-1.2,2.7-1.5,5.4-1.5,7.4c0,1.9,0.3,4.8,1.6,7.6c1.5,3,3.6,4.6,3.8,4.6
		C279.9,327.5,280,327.4,280,327.2z"/>
	<path class="st3" d="M285.8,318.6c-1,1.6-1.9,2-3,2c-0.3,0-0.5,0-0.5,0.5c0,0.1,0.1,0.3,0.3,0.3c0.7,0,1.4-0.1,2.1-0.1
		c0.8,0,1.7,0.1,2.4,0.1c0.1,0,0.5,0,0.5-0.5c0-0.3-0.2-0.3-0.4-0.3c-0.6,0-1.1-0.2-1.1-0.9c0-0.3,0.1-0.6,0.3-0.9
		c0.6-1,1.2-2.1,1.8-3.1c2,0,4.1,0,6.1,0c0,0.5,0.4,3.8,0.4,4.1c0,0.7-1.3,0.8-1.8,0.8c-0.3,0-0.6,0-0.6,0.5c0,0.3,0.3,0.3,0.3,0.3
		c1,0,2-0.1,3-0.1c0.6,0,2.1,0.1,2.7,0.1c0.1,0,0.4,0,0.4-0.5c0-0.3-0.2-0.3-0.6-0.3c-1.5,0-1.5-0.2-1.6-0.9
		c-0.5-5.1-1-10.1-1.5-15.2c0-0.5,0-0.6-0.5-0.6c-0.4,0-0.5,0.2-0.6,0.4C291.4,309.1,288.6,313.9,285.8,318.6z M288.7,315
		c1.6-2.7,3.2-5.3,4.8-8c0.3,2.7,0.5,5.3,0.8,8C292.4,315,290.6,315,288.7,315z"/>
	<path class="st3" d="M306.7,315.3c0-1.9-0.3-4.8-1.6-7.6c-1.5-3-3.5-4.6-3.8-4.6c-0.1,0-0.2,0.1-0.2,0.2c0,0.1,0,0.1,0.5,0.6
		c2.4,2.4,3.8,6.3,3.8,11.4c0,4.2-0.9,8.4-3.9,11.5c-0.3,0.3-0.3,0.3-0.3,0.4c0,0.1,0.1,0.2,0.2,0.2c0.2,0,2.4-1.7,3.9-4.7
		C306.4,320.1,306.7,317.4,306.7,315.3z"/>
	<path class="st3" d="M332.6,313.4c0.4,0,0.8,0,0.8-0.5c0-0.5-0.5-0.5-0.8-0.5c-4.9,0-9.7,0-14.6,0c-0.3,0-0.8,0-0.8,0.5
		c0,0.5,0.5,0.5,0.8,0.5C322.9,313.4,327.7,313.4,332.6,313.4z M332.6,318.2c0.3,0,0.8,0,0.8-0.5c0-0.5-0.5-0.5-0.8-0.5
		c-4.8,0-9.7,0-14.5,0c-0.4,0-0.8,0-0.8,0.5c0,0.5,0.5,0.5,0.8,0.5C322.9,318.2,327.7,318.2,332.6,318.2z"/>
	<path class="st3" d="M347.7,327.5c0-0.3,0-0.6,0-1c-0.8,0-1.6,0-2.4,0c0-7.5,0-14.9,0-22.4c0.8,0,1.6,0,2.4,0c0-0.3,0-0.6,0-1
		c-1.1,0-2.2,0-3.3,0c0,8.1,0,16.2,0,24.3C345.5,327.5,346.6,327.5,347.7,327.5z"/>
	<path class="st3" d="M351.5,319.4c1.3-1.4,2-2,2.9-2.8c0,0,1.5-1.3,2.4-2.2c2.3-2.3,2.8-3.4,2.8-3.5c0-0.2-0.2-0.2-0.3-0.2
		c-0.2,0-0.2,0.1-0.4,0.3c-0.7,1.2-1.2,1.6-1.8,1.6c-0.6,0-0.9-0.4-1.2-0.8c-0.5-0.6-0.9-1-1.7-1c-1.8,0-2.9,2.3-2.9,2.8
		c0,0.1,0.1,0.3,0.3,0.3s0.3-0.1,0.3-0.3c0.5-1.1,1.9-1.1,2.1-1.1c0.5,0,1,0.2,1.5,0.4c1,0.4,1.2,0.4,1.9,0.4
		c-0.9,1-2.9,2.8-3.4,3.2c-0.7,0.7-1.5,1.4-2.2,2c-1.7,1.6-2.5,3-2.5,3.2c0,0.2,0.2,0.2,0.3,0.2c0.2,0,0.2,0,0.4-0.3
		c0.6-0.9,1.3-1.5,2.1-1.5c0.6,0,0.8,0.2,1.4,0.9c0.4,0.5,0.9,0.9,1.6,0.9c2.4,0,3.8-3.1,3.8-3.7c0-0.1-0.1-0.2-0.3-0.2
		c-0.2,0-0.3,0.1-0.3,0.3c-0.6,1.6-2.1,2-2.9,2c-0.5,0-0.9-0.1-1.4-0.3c-0.8-0.3-1.2-0.4-1.7-0.4
		C352.1,319.3,351.7,319.3,351.5,319.4z"/>
	<path class="st3" d="M366.6,314.8c0.2-0.6,0.2-0.8,1.8-0.8c0.5,0,0.7,0,0.7-0.4c0,0,0-0.2-0.3-0.2c-0.4,0-0.9,0-1.3,0.1
		c-0.4,0-0.9,0-1.4,0c-0.4,0-0.8,0-1.2,0c-0.4,0-0.8-0.1-1.1-0.1c-0.1,0-0.4,0-0.4,0.4c0,0.2,0.2,0.2,0.5,0.2c0,0,0.3,0,0.6,0
		c0.4,0,0.4,0.1,0.4,0.2c0,0,0,0.1-0.1,0.4c-0.8,3-1.5,6-2.3,9c-0.2,0.6-0.2,0.7-1.5,0.7c-0.3,0-0.5,0-0.5,0.4
		c0,0.3,0.2,0.3,0.5,0.3c2.9,0,5.7,0,8.6,0c0.4,0,0.4,0,0.6-0.3c0.2-0.5,1.4-3.8,1.4-3.9c0-0.1,0-0.2-0.3-0.2
		c-0.2,0-0.2,0.1-0.3,0.4c-0.6,1.6-1.4,3.5-4.5,3.5c-0.6,0-1.3,0-1.9,0c-0.5,0-0.5,0-0.5-0.2c0,0,0-0.1,0.1-0.4
		C365.1,320.9,365.8,317.8,366.6,314.8z"/>
	<path class="st3" d="M376.5,324.8c0,0.9-0.2,2-1.3,3.1c-0.1,0.1-0.1,0.1-0.1,0.2c0,0.1,0.1,0.2,0.2,0.2c0.2,0,1.7-1.4,1.7-3.4
		c0-1.1-0.4-1.9-1.2-1.9c-0.6,0-1,0.4-1,1c0,0.5,0.4,1,1,1C376.2,325,376.5,324.8,376.5,324.8z"/>
	<path class="st3" d="M387.4,319.6c0-1.9-0.2-3.2-1-4.4c-0.5-0.8-1.6-1.5-2.9-1.5c-3.9,0-3.9,4.6-3.9,5.9s0,5.8,3.9,5.8
		C387.4,325.4,387.4,320.8,387.4,319.6z M383.5,324.9c-0.8,0-1.8-0.5-2.2-1.9c-0.2-1-0.2-2.4-0.2-3.7c0-1.2,0-2.5,0.3-3.5
		c0.4-1.3,1.4-1.7,2.1-1.7c0.9,0,1.8,0.6,2.1,1.6c0.3,0.9,0.3,2.1,0.3,3.6c0,1.3,0,2.5-0.2,3.6C385.3,324.5,384.2,324.9,383.5,324.9
		z"/>
	<path class="st3" d="M397.6,327.2c0-0.1,0-0.1-0.4-0.5c-3-3.1-3.8-7.7-3.8-11.4c0-4.2,0.9-8.5,3.9-11.5c0.3-0.3,0.3-0.3,0.3-0.4
		c0-0.2-0.1-0.2-0.2-0.2c-0.2,0-2.4,1.7-3.9,4.7c-1.2,2.7-1.5,5.4-1.5,7.4c0,1.9,0.3,4.8,1.6,7.6c1.5,3,3.6,4.6,3.8,4.6
		C397.5,327.5,397.6,327.4,397.6,327.2z"/>
	<path class="st3" d="M403.4,318.6c-1,1.6-1.9,2-3,2c-0.3,0-0.5,0-0.5,0.5c0,0.1,0.1,0.3,0.3,0.3c0.7,0,1.4-0.1,2.1-0.1
		c0.8,0,1.7,0.1,2.4,0.1c0.1,0,0.5,0,0.5-0.5c0-0.3-0.2-0.3-0.4-0.3c-0.6,0-1.1-0.2-1.1-0.9c0-0.3,0.1-0.6,0.3-0.9
		c0.6-1,1.2-2.1,1.8-3.1c2,0,4.1,0,6.1,0c0,0.5,0.4,3.8,0.4,4.1c0,0.7-1.3,0.8-1.8,0.8c-0.3,0-0.6,0-0.6,0.5c0,0.3,0.3,0.3,0.3,0.3
		c1,0,2-0.1,3-0.1c0.6,0,2.1,0.1,2.7,0.1c0.1,0,0.4,0,0.4-0.5c0-0.3-0.2-0.3-0.6-0.3c-1.5,0-1.5-0.2-1.6-0.9
		c-0.5-5.1-1-10.1-1.5-15.2c0-0.5,0-0.6-0.5-0.6c-0.4,0-0.5,0.2-0.6,0.4C409,309.1,406.2,313.9,403.4,318.6z M406.3,315
		c1.6-2.7,3.2-5.3,4.8-8c0.3,2.7,0.5,5.3,0.8,8C410,315,408.1,315,406.3,315z"/>
	<path class="st3" d="M424.3,315.3c0-1.9-0.3-4.8-1.6-7.6c-1.5-3-3.5-4.6-3.8-4.6c-0.1,0-0.2,0.1-0.2,0.2c0,0.1,0,0.1,0.5,0.6
		c2.4,2.4,3.8,6.3,3.8,11.4c0,4.2-0.9,8.4-3.9,11.5c-0.3,0.3-0.3,0.3-0.3,0.4c0,0.1,0.1,0.2,0.2,0.2c0.2,0,2.4-1.7,3.9-4.7
		C424,320.1,424.3,317.4,424.3,315.3z"/>
	<path class="st3" d="M430.9,304c0-0.4,0-0.8-0.5-0.8c-0.5,0-0.5,0.5-0.5,0.9c0,7.5,0,15,0,22.5c0,0.4,0,0.9,0.5,0.9
		c0.5,0,0.5-0.4,0.5-0.8C430.9,319.1,430.9,311.5,430.9,304z M435.6,304.1c0-0.4,0-0.9-0.5-0.9c-0.5,0-0.5,0.4-0.5,0.8
		c0,7.6,0,15.1,0,22.7c0,0.4,0,0.8,0.5,0.8c0.5,0,0.5-0.5,0.5-0.9C435.6,319.1,435.6,311.6,435.6,304.1z"/>
	<path class="st3" d="M442.1,319.4c1.3-1.4,2-2,2.9-2.8c0,0,1.5-1.3,2.4-2.2c2.3-2.3,2.8-3.4,2.8-3.5c0-0.2-0.2-0.2-0.3-0.2
		c-0.2,0-0.2,0.1-0.4,0.3c-0.7,1.2-1.2,1.6-1.8,1.6s-0.9-0.4-1.2-0.8c-0.5-0.6-0.9-1-1.7-1c-1.8,0-2.9,2.3-2.9,2.8
		c0,0.1,0.1,0.3,0.3,0.3s0.3-0.1,0.3-0.3c0.5-1.1,1.9-1.1,2.1-1.1c0.5,0,1,0.2,1.5,0.4c1,0.4,1.2,0.4,1.9,0.4
		c-0.9,1-2.9,2.8-3.4,3.2c-0.7,0.7-1.5,1.4-2.2,2c-1.7,1.6-2.5,3-2.5,3.2c0,0.2,0.2,0.2,0.3,0.2c0.2,0,0.2,0,0.4-0.3
		c0.6-0.9,1.3-1.5,2.1-1.5c0.6,0,0.8,0.2,1.4,0.9c0.4,0.5,0.9,0.9,1.6,0.9c2.4,0,3.8-3.1,3.8-3.7c0-0.1-0.1-0.2-0.3-0.2
		c-0.2,0-0.3,0.1-0.3,0.3c-0.6,1.6-2.1,2-2.9,2c-0.5,0-0.9-0.1-1.4-0.3c-0.8-0.3-1.2-0.4-1.7-0.4
		C442.7,319.3,442.3,319.3,442.1,319.4z"/>
	<path class="st3" d="M457.2,314.8c0.2-0.6,0.2-0.8,1.8-0.8c0.5,0,0.7,0,0.7-0.4c0,0,0-0.2-0.3-0.2c-0.4,0-0.9,0-1.3,0.1
		c-0.4,0-0.9,0-1.4,0c-0.4,0-0.8,0-1.2,0c-0.4,0-0.8-0.1-1.1-0.1c-0.1,0-0.4,0-0.4,0.4c0,0.2,0.2,0.2,0.5,0.2c0,0,0.3,0,0.6,0
		c0.4,0,0.4,0.1,0.4,0.2c0,0,0,0.1-0.1,0.4c-0.8,3-1.5,6-2.3,9c-0.2,0.6-0.2,0.7-1.5,0.7c-0.3,0-0.5,0-0.5,0.4
		c0,0.3,0.2,0.3,0.5,0.3c2.9,0,5.7,0,8.6,0c0.4,0,0.4,0,0.6-0.3c0.2-0.5,1.4-3.8,1.4-3.9c0-0.1,0-0.2-0.3-0.2
		c-0.2,0-0.2,0.1-0.3,0.4c-0.6,1.6-1.4,3.5-4.5,3.5c-0.6,0-1.3,0-1.9,0c-0.5,0-0.5,0-0.5-0.2c0,0,0-0.1,0.1-0.4
		C455.6,320.9,456.4,317.8,457.2,314.8z"/>
	<path class="st3" d="M467.1,324.8c0,0.9-0.2,2-1.3,3.1c-0.1,0.1-0.1,0.1-0.1,0.2c0,0.1,0.1,0.2,0.2,0.2c0.2,0,1.7-1.4,1.7-3.4
		c0-1.1-0.4-1.9-1.2-1.9c-0.6,0-1,0.4-1,1c0,0.5,0.4,1,1,1C466.8,325,467.1,324.8,467.1,324.8z"/>
	<path class="st3" d="M475,314.2c0-0.5,0-0.5-0.5-0.5c-1.1,1.1-2.6,1.1-3.3,1.1c0,0.2,0,0.4,0,0.6c0.4,0,1.5,0,2.5-0.5
		c0,2.9,0,5.8,0,8.7c0,0.6,0,0.8-1.7,0.8c-0.2,0-0.4,0-0.6,0c0,0.2,0,0.4,0,0.6c0.3,0,2.4-0.1,3-0.1c0.5,0,2.7,0.1,3,0.1
		c0-0.2,0-0.4,0-0.6c-0.2,0-0.4,0-0.6,0c-1.7,0-1.7-0.2-1.7-0.8C475,320.5,475,317.4,475,314.2z"/>
	<path class="st3" d="M488.2,327.2c0-0.1,0-0.1-0.4-0.5c-3-3.1-3.8-7.7-3.8-11.4c0-4.2,0.9-8.5,3.9-11.5c0.3-0.3,0.3-0.3,0.3-0.4
		c0-0.2-0.1-0.2-0.2-0.2c-0.2,0-2.4,1.7-3.9,4.7c-1.2,2.7-1.5,5.4-1.5,7.4c0,1.9,0.3,4.8,1.6,7.6c1.5,3,3.5,4.6,3.8,4.6
		C488.1,327.5,488.2,327.4,488.2,327.2z"/>
	<path class="st3" d="M494,318.6c-1,1.6-1.9,2-3,2c-0.3,0-0.5,0-0.5,0.5c0,0.1,0.1,0.3,0.3,0.3c0.7,0,1.4-0.1,2.1-0.1
		c0.8,0,1.7,0.1,2.4,0.1c0.1,0,0.5,0,0.5-0.5c0-0.3-0.2-0.3-0.4-0.3c-0.6,0-1.1-0.2-1.1-0.9c0-0.3,0.1-0.6,0.3-0.9
		c0.6-1,1.2-2.1,1.8-3.1c2,0,4.1,0,6.1,0c0.1,0.5,0.4,3.8,0.4,4.1c0,0.7-1.3,0.8-1.8,0.8c-0.3,0-0.6,0-0.6,0.5
		c0,0.3,0.3,0.3,0.3,0.3c1,0,2-0.1,3-0.1c0.6,0,2.1,0.1,2.7,0.1c0.1,0,0.4,0,0.4-0.5c0-0.3-0.2-0.3-0.6-0.3c-1.5,0-1.5-0.2-1.6-0.9
		c-0.5-5.1-1-10.1-1.5-15.2c0-0.5,0-0.6-0.5-0.6c-0.4,0-0.5,0.2-0.6,0.4C499.6,309.1,496.8,313.9,494,318.6z M496.9,315
		c1.6-2.7,3.2-5.3,4.8-8c0.3,2.7,0.5,5.3,0.8,8C500.6,315,498.7,315,496.9,315z"/>
	<path class="st3" d="M514.9,315.3c0-1.9-0.3-4.8-1.6-7.6c-1.5-3-3.5-4.6-3.8-4.6c-0.1,0-0.2,0.1-0.2,0.2c0,0.1,0,0.1,0.5,0.6
		c2.4,2.4,3.8,6.3,3.8,11.4c0,4.2-0.9,8.4-3.9,11.5c-0.3,0.3-0.3,0.3-0.3,0.4c0,0.1,0.1,0.2,0.2,0.2c0.2,0,2.4-1.7,3.9-4.7
		C514.6,320.1,514.9,317.4,514.9,315.3z"/>
	<path class="st3" d="M521.5,304c0-0.4,0-0.8-0.5-0.8c-0.5,0-0.5,0.5-0.5,0.9c0,7.5,0,15,0,22.5c0,0.4,0,0.9,0.5,0.9
		c0.5,0,0.5-0.4,0.5-0.8C521.5,319.1,521.5,311.5,521.5,304z M526.2,304.1c0-0.4,0-0.9-0.5-0.9c-0.5,0-0.5,0.4-0.5,0.8
		c0,7.6,0,15.1,0,22.7c0,0.4,0,0.8,0.5,0.8c0.5,0,0.5-0.5,0.5-0.9C526.2,319.1,526.2,311.6,526.2,304.1z"/>
	<path class="st3" d="M532.7,319.4c1.3-1.4,2-2,2.9-2.8c0,0,1.5-1.3,2.4-2.2c2.3-2.3,2.8-3.4,2.8-3.5c0-0.2-0.2-0.2-0.3-0.2
		c-0.2,0-0.2,0.1-0.4,0.3c-0.7,1.2-1.2,1.6-1.8,1.6s-0.9-0.4-1.2-0.8c-0.5-0.6-0.9-1-1.7-1c-1.8,0-2.9,2.3-2.9,2.8
		c0,0.1,0.1,0.3,0.3,0.3s0.3-0.1,0.3-0.3c0.5-1.1,1.9-1.1,2.1-1.1c0.5,0,1,0.2,1.5,0.4c1,0.4,1.2,0.4,1.9,0.4
		c-0.9,1-2.9,2.8-3.4,3.2c-0.7,0.7-1.5,1.4-2.2,2c-1.7,1.6-2.5,3-2.5,3.2c0,0.2,0.2,0.2,0.3,0.2c0.2,0,0.2,0,0.4-0.3
		c0.6-0.9,1.3-1.5,2.1-1.5c0.6,0,0.8,0.2,1.4,0.9c0.4,0.5,0.9,0.9,1.6,0.9c2.4,0,3.8-3.1,3.8-3.7c0-0.1-0.1-0.2-0.3-0.2
		c-0.2,0-0.3,0.1-0.3,0.3c-0.6,1.6-2.1,2-2.9,2c-0.5,0-0.9-0.1-1.4-0.3c-0.8-0.3-1.2-0.4-1.7-0.4
		C533.3,319.3,532.9,319.3,532.7,319.4z"/>
	<path class="st3" d="M547.8,314.8c0.2-0.6,0.2-0.8,1.8-0.8c0.5,0,0.7,0,0.7-0.4c0,0,0-0.2-0.3-0.2c-0.4,0-0.9,0-1.3,0.1
		c-0.4,0-0.9,0-1.4,0c-0.4,0-0.8,0-1.2,0c-0.4,0-0.8-0.1-1.1-0.1c-0.1,0-0.4,0-0.4,0.4c0,0.2,0.2,0.2,0.5,0.2c0,0,0.3,0,0.6,0
		c0.4,0,0.4,0.1,0.4,0.2c0,0,0,0.1-0.1,0.4c-0.8,3-1.5,6-2.3,9c-0.2,0.6-0.2,0.7-1.5,0.7c-0.3,0-0.5,0-0.5,0.4
		c0,0.3,0.2,0.3,0.5,0.3c2.9,0,5.7,0,8.6,0c0.4,0,0.4,0,0.6-0.3c0.2-0.5,1.4-3.8,1.4-3.9c0-0.1,0-0.2-0.3-0.2
		c-0.2,0-0.2,0.1-0.3,0.4c-0.6,1.6-1.4,3.5-4.5,3.5c-0.6,0-1.3,0-1.9,0c-0.5,0-0.5,0-0.5-0.2c0,0,0-0.1,0.1-0.4
		C546.2,320.9,547,317.8,547.8,314.8z"/>
	<path class="st3" d="M557.7,324.8c0,0.9-0.2,2-1.3,3.1c-0.1,0.1-0.1,0.1-0.1,0.2c0,0.1,0.1,0.2,0.2,0.2c0.2,0,1.7-1.4,1.7-3.4
		c0-1.1-0.4-1.9-1.2-1.9c-0.6,0-1,0.4-1,1c0,0.5,0.4,1,1,1C557.4,325,557.7,324.8,557.7,324.8z"/>
	<path class="st3" d="M568.4,321.9c-0.2,0-0.4,0-0.6,0c-0.1,0.4-0.2,1.4-0.4,1.5c-0.1,0.1-1.4,0.1-1.7,0.1c-1,0-2.1,0-3.1,0
		c1.8-1.6,2.4-2.1,3.4-2.9c1.3-1,2.4-2.1,2.4-3.7c0-2.1-1.8-3.3-4-3.3c-2.1,0-3.5,1.5-3.5,3c0,0.9,0.7,1,0.9,1
		c0.4,0,0.9-0.3,0.9-0.9c0-0.3-0.1-0.9-1-0.9c0.5-1.2,1.7-1.6,2.5-1.6c1.7,0,2.6,1.3,2.6,2.7c0,1.5-1.1,2.7-1.6,3.3
		c-1.4,1.3-2.7,2.7-4.1,4c-0.2,0.2-0.2,0.2-0.2,0.7c2.3,0,4.7,0,7,0C568.1,324,568.3,323,568.4,321.9z"/>
	<path class="st3" d="M578.8,327.2c0-0.1,0-0.1-0.4-0.5c-3-3.1-3.8-7.7-3.8-11.4c0-4.2,0.9-8.5,3.9-11.5c0.3-0.3,0.3-0.3,0.3-0.4
		c0-0.2-0.1-0.2-0.2-0.2c-0.2,0-2.4,1.7-3.9,4.7c-1.2,2.7-1.5,5.4-1.5,7.4c0,1.9,0.3,4.8,1.6,7.6c1.5,3,3.5,4.6,3.8,4.6
		C578.7,327.5,578.8,327.4,578.8,327.2z"/>
	<path class="st3" d="M584.6,318.6c-1,1.6-1.9,2-3,2c-0.3,0-0.5,0-0.5,0.5c0,0.1,0.1,0.3,0.3,0.3c0.7,0,1.4-0.1,2.1-0.1
		c0.8,0,1.7,0.1,2.4,0.1c0.1,0,0.5,0,0.5-0.5c0-0.3-0.2-0.3-0.4-0.3c-0.6,0-1.1-0.2-1.1-0.9c0-0.3,0.1-0.6,0.3-0.9
		c0.6-1,1.2-2.1,1.8-3.1c2,0,4.1,0,6.1,0c0.1,0.5,0.4,3.8,0.4,4.1c0,0.7-1.3,0.8-1.8,0.8c-0.3,0-0.6,0-0.6,0.5
		c0,0.3,0.3,0.3,0.3,0.3c1,0,2-0.1,3-0.1c0.6,0,2.1,0.1,2.7,0.1c0.1,0,0.4,0,0.4-0.5c0-0.3-0.2-0.3-0.6-0.3c-1.5,0-1.5-0.2-1.6-0.9
		c-0.5-5.1-1-10.1-1.5-15.2c0-0.5,0-0.6-0.5-0.6c-0.4,0-0.5,0.2-0.6,0.4C590.2,309.1,587.4,313.9,584.6,318.6z M587.5,315
		c1.6-2.7,3.2-5.3,4.8-8c0.3,2.7,0.5,5.3,0.8,8C591.2,315,589.3,315,587.5,315z"/>
	<path class="st3" d="M605.5,315.3c0-1.9-0.3-4.8-1.6-7.6c-1.5-3-3.5-4.6-3.8-4.6c-0.1,0-0.2,0.1-0.2,0.2c0,0.1,0,0.1,0.5,0.6
		c2.4,2.4,3.8,6.3,3.8,11.4c0,4.2-0.9,8.4-3.9,11.5c-0.3,0.3-0.3,0.3-0.3,0.4c0,0.1,0.1,0.2,0.2,0.2c0.2,0,2.4-1.7,3.9-4.7
		C605.2,320.1,605.5,317.4,605.5,315.3z"/>
	<path class="st3" d="M611.8,303.2c-1.1,0-2.2,0-3.3,0c0,0.3,0,0.6,0,1c0.8,0,1.6,0,2.4,0c0,7.5,0,14.9,0,22.4c-0.8,0-1.6,0-2.4,0
		c0,0.3,0,0.6,0,1c1.1,0,2.2,0,3.3,0C611.8,319.4,611.8,311.3,611.8,303.2z"/>
</g>
</svg>
