<?xml version="1.0" encoding="utf-8"?>
<!-- Generator: Adobe Illustrator 28.0.0, SVG Export Plug-In . SVG Version: 6.00 Build 0)  -->
<svg version="1.1" id="Layer_1" xmlns="http://www.w3.org/2000/svg" xmlns:xlink="http://www.w3.org/1999/xlink" x="0px" y="0px"
	 viewBox="0 0 854 480" style="enable-background:new 0 0 854 480;" xml:space="preserve">
<style type="text/css">
	.st0{fill:#0E1116;}
	.st1{fill:#A98BFF;}
	.st2{fill:#8B97A8;}
	.st3{fill:#E8ECF1;}
	.st4{fill:none;stroke:#4A5468;stroke-width:0.9007;stroke-miterlimit:10;}
	.st5{fill:none;stroke:#8B97A8;stroke-width:1.4411;stroke-miterlimit:10;}
	.st6{fill:#0E1116;stroke:#A98BFF;stroke-width:2.4019;stroke-miterlimit:10;}
	.st7{fill:none;stroke:#A98BFF;stroke-width:1.8014;stroke-miterlimit:10;}
</style>
<rect x="-85.4" y="-48" class="st0" width="1024.8" height="576"/>
<path class="st1" d="M64.2,26.8c0-3.3-2.7-6-6-6c-10.4,0-20.8,0-31.2,0c-3.3,0-6,2.7-6,6c0,5.2,0,10.4,0,15.6c0,3.3,2.7,6,6,6
	c10.4,0,20.8,0,31.2,0c3.3,0,6-2.7,6-6C64.2,37.2,64.2,32,64.2,26.8z"/>
<path class="st0" d="M43.2,40.6c0-0.8,0-1.6,0-2.4c-1.6,0-3.3,0-4.9,0c0-0.7,0-1.3,0-2c1.7-2.5,3.5-5.1,5.2-7.6c0.6,0,1.3,0,1.9,0
	c0,2.5,0,5.1,0,7.6c0.5,0,1,0,1.5,0c0,0.7,0,1.3,0,2c-0.5,0-1,0-1.5,0c0,0.8,0,1.6,0,2.4C44.7,40.6,44,40.6,43.2,40.6z M43.2,36.2
	c0-1.4,0-2.7,0-4.1c-0.9,1.4-1.8,2.7-2.7,4.1C41.4,36.2,42.3,36.2,43.2,36.2z"/>
<path class="st2" d="M87,35.9c0-0.5,0-0.9,0-1.4c1.7,0,3.4,0,5.1,0c0,1.5,0,2.9,0,4.4c-0.8,0.6-1.6,1.1-2.4,1.4
	c-0.8,0.3-1.7,0.5-2.5,0.5c-1.2,0-2.2-0.2-3.2-0.8c-0.9-0.5-1.7-1.2-2.2-2.2c-0.5-0.9-0.7-2-0.7-3.2c0-1.2,0.2-2.3,0.7-3.3
	c0.5-1,1.2-1.7,2.1-2.2c0.9-0.5,2-0.7,3.1-0.7c0.9,0,1.7,0.1,2.3,0.4c0.7,0.3,1.2,0.7,1.6,1.2s0.7,1.1,0.9,2
	c-0.5,0.1-0.9,0.3-1.4,0.4c-0.2-0.6-0.4-1.1-0.7-1.4c-0.3-0.4-0.6-0.6-1.1-0.8c-0.5-0.2-1-0.3-1.6-0.3c-0.7,0-1.3,0.1-1.9,0.3
	c-0.5,0.2-0.9,0.5-1.3,0.9c-0.3,0.4-0.6,0.8-0.8,1.2c-0.3,0.7-0.4,1.5-0.4,2.4c0,1.1,0.2,2,0.5,2.7c0.4,0.7,0.9,1.3,1.6,1.6
	c0.7,0.4,1.4,0.5,2.2,0.5c0.7,0,1.4-0.1,2-0.4c0.7-0.3,1.1-0.5,1.5-0.8c0-0.7,0-1.5,0-2.2C89.4,35.9,88.2,35.9,87,35.9z"/>
<path class="st2" d="M93.4,40.6c0-4,0-8,0-11.9c0.5,0,1.1,0,1.6,0c0,3.5,0,7,0,10.5c2,0,3.9,0,5.9,0c0,0.5,0,0.9,0,1.4
	C98.4,40.6,95.9,40.6,93.4,40.6z"/>
<path class="st2" d="M101.2,40.6c1.5-4,3.1-8,4.6-11.9c0.6,0,1.1,0,1.7,0c1.6,4,3.3,8,4.9,11.9c-0.6,0-1.2,0-1.8,0
	c-0.5-1.2-0.9-2.4-1.4-3.6c-1.7,0-3.3,0-5,0c-0.4,1.2-0.9,2.4-1.3,3.6C102.3,40.6,101.7,40.6,101.2,40.6z M104.6,35.7
	c1.3,0,2.7,0,4,0c-0.4-1.1-0.8-2.2-1.2-3.3c-0.4-1-0.7-1.8-0.9-2.5c-0.2,0.8-0.4,1.5-0.6,2.3C105.5,33.4,105.1,34.5,104.6,35.7z"/>
<path class="st2" d="M114.5,40.6c0-4,0-8,0-11.9c0.5,0,1.1,0,1.6,0c2.1,3.1,4.2,6.2,6.3,9.4c0-3.1,0-6.2,0-9.4c0.5,0,1,0,1.5,0
	c0,4,0,8,0,11.9c-0.5,0-1.1,0-1.6,0c-2.1-3.1-4.2-6.3-6.3-9.4c0,3.1,0,6.3,0,9.4C115.5,40.6,115,40.6,114.5,40.6z"/>
<path class="st2" d="M135,36.4c0.5,0.1,1.1,0.3,1.6,0.4c-0.3,1.3-0.9,2.3-1.8,3c-0.9,0.7-1.9,1-3.2,1c-1.3,0-2.3-0.3-3.1-0.8
	c-0.8-0.5-1.4-1.3-1.8-2.3c-0.4-1-0.6-2.1-0.6-3.2c0-1.2,0.2-2.3,0.7-3.2c0.5-0.9,1.2-1.6,2-2.1c0.9-0.5,1.8-0.7,2.9-0.7
	c1.2,0,2.2,0.3,3,0.9c0.8,0.6,1.4,1.5,1.7,2.6c-0.5,0.1-1,0.2-1.6,0.4c-0.3-0.9-0.7-1.5-1.2-1.9c-0.5-0.4-1.2-0.6-2-0.6
	c-0.9,0-1.7,0.2-2.3,0.7c-0.6,0.4-1,1-1.3,1.8c-0.3,0.7-0.4,1.5-0.4,2.3c0,1,0.1,1.9,0.4,2.6c0.3,0.8,0.8,1.3,1.4,1.7
	c0.6,0.4,1.3,0.6,2,0.6c0.9,0,1.6-0.3,2.3-0.8C134.4,38.2,134.8,37.4,135,36.4z"/>
<path class="st2" d="M138.5,40.6c0-4,0-8,0-11.9c2.9,0,5.8,0,8.6,0c0,0.5,0,0.9,0,1.4c-2.4,0-4.7,0-7.1,0c0,1.2,0,2.4,0,3.7
	c2.2,0,4.4,0,6.6,0c0,0.5,0,0.9,0,1.4c-2.2,0-4.4,0-6.6,0c0,1.4,0,2.7,0,4.1c2.4,0,4.9,0,7.3,0c0,0.5,0,0.9,0,1.4
	C144.5,40.6,141.5,40.6,138.5,40.6z"/>
<path class="st2" d="M162,39.5c-0.5,0.5-1.1,0.8-1.6,1c-0.5,0.2-1,0.3-1.6,0.3c-0.9,0-1.7-0.2-2.2-0.7c-0.5-0.5-0.8-1.1-0.8-1.8
	c0-0.4,0.1-0.8,0.3-1.2c0.2-0.4,0.4-0.6,0.8-0.8c0.3-0.2,0.7-0.4,1.1-0.5c0.3-0.1,0.7-0.2,1.3-0.2c1.2-0.1,2.1-0.3,2.6-0.5
	c0-0.2,0-0.3,0-0.4c0-0.6-0.1-1-0.4-1.3c-0.4-0.3-0.9-0.5-1.7-0.5c-0.7,0-1.2,0.1-1.5,0.4c-0.3,0.2-0.6,0.7-0.7,1.3
	c-0.5-0.1-1-0.1-1.4-0.2c0.1-0.6,0.3-1.1,0.6-1.5c0.3-0.4,0.7-0.7,1.3-0.9c0.6-0.2,1.2-0.3,2-0.3c0.7,0,1.3,0.1,1.8,0.3
	s0.8,0.4,1,0.7c0.2,0.3,0.4,0.6,0.5,1c0,0.2,0.1,0.7,0.1,1.3c0,0.7,0,1.3,0,2c0,1.4,0,2.2,0.1,2.6c0.1,0.4,0.2,0.7,0.4,1
	c-0.5,0-1,0-1.5,0C162.1,40.3,162,40,162,39.5z M161.9,36.3c-0.5,0.2-1.3,0.4-2.4,0.6c-0.6,0.1-1,0.2-1.3,0.3
	c-0.2,0.1-0.4,0.3-0.6,0.5c-0.1,0.2-0.2,0.4-0.2,0.7c0,0.4,0.1,0.7,0.4,1c0.3,0.3,0.7,0.4,1.3,0.4c0.6,0,1.1-0.1,1.5-0.4
	c0.4-0.2,0.8-0.6,1-1c0.2-0.3,0.2-0.8,0.2-1.5C161.9,36.6,161.9,36.4,161.9,36.3z"/>
<path class="st2" d="M165.3,40.6c0-2.9,0-5.8,0-8.7c0.4,0,0.9,0,1.3,0c0,0.4,0,0.9,0,1.3c0.3-0.6,0.6-1,0.9-1.2
	c0.3-0.2,0.6-0.3,1-0.3c0.5,0,1,0.2,1.5,0.5c-0.2,0.5-0.3,0.9-0.5,1.4c-0.4-0.2-0.7-0.3-1.1-0.3c-0.3,0-0.6,0.1-0.9,0.3
	c-0.3,0.2-0.4,0.5-0.6,0.8c-0.2,0.5-0.2,1.1-0.2,1.7c0,1.5,0,3,0,4.5C166.3,40.6,165.8,40.6,165.3,40.6z"/>
<path class="st2" d="M177,37.4c0.5,0.1,1,0.1,1.4,0.2c-0.2,1-0.6,1.8-1.2,2.3c-0.6,0.6-1.4,0.8-2.4,0.8c-1.2,0-2.1-0.4-2.9-1.2
	c-0.7-0.8-1.1-1.9-1.1-3.3c0-0.9,0.2-1.7,0.5-2.4c0.3-0.7,0.8-1.2,1.4-1.6c0.6-0.4,1.3-0.5,2.1-0.5c0.9,0,1.7,0.2,2.3,0.7
	c0.6,0.5,1,1.2,1.2,2c-0.5,0.1-0.9,0.1-1.4,0.2c-0.1-0.6-0.4-1-0.7-1.3c-0.3-0.3-0.8-0.4-1.2-0.4c-0.7,0-1.3,0.3-1.8,0.8
	c-0.5,0.5-0.7,1.4-0.7,2.5c0,1.2,0.2,2,0.7,2.5c0.4,0.5,1,0.8,1.7,0.8c0.6,0,1.1-0.2,1.4-0.5C176.6,38.7,176.9,38.2,177,37.4z"/>
<path class="st2" d="M180.4,40.6c0-4,0-8,0-11.9c0.5,0,1,0,1.5,0c0,1.4,0,2.9,0,4.3c0.7-0.8,1.6-1.2,2.6-1.2c0.6,0,1.2,0.1,1.7,0.4
	c0.5,0.3,0.8,0.6,1,1c0.2,0.4,0.3,1.1,0.3,1.9c0,1.8,0,3.7,0,5.5c-0.5,0-1,0-1.5,0c0-1.8,0-3.7,0-5.5c0-0.7-0.2-1.3-0.5-1.6
	c-0.3-0.3-0.8-0.5-1.3-0.5c-0.4,0-0.8,0.1-1.2,0.3c-0.4,0.2-0.7,0.5-0.8,0.9c-0.2,0.4-0.2,0.9-0.2,1.6c0,1.6,0,3.2,0,4.7
	C181.3,40.6,180.8,40.6,180.4,40.6z"/>
<path class="st2" d="M189.4,30.4c0-0.6,0-1.1,0-1.7c0.5,0,1,0,1.5,0c0,0.6,0,1.1,0,1.7C190.3,30.4,189.8,30.4,189.4,30.4z
	 M189.4,40.6c0-2.9,0-5.8,0-8.7c0.5,0,1,0,1.5,0c0,2.9,0,5.8,0,8.7C190.3,40.6,189.8,40.6,189.4,40.6z"/>
<path class="st2" d="M195.6,39.3c0.1,0.4,0.1,0.9,0.2,1.3c-0.4,0.1-0.8,0.1-1.1,0.1c-0.5,0-0.9-0.1-1.2-0.3
	c-0.3-0.2-0.5-0.4-0.6-0.7c-0.1-0.3-0.2-0.9-0.2-1.7c0-1.7,0-3.3,0-5c-0.4,0-0.7,0-1.1,0c0-0.4,0-0.8,0-1.1c0.4,0,0.7,0,1.1,0
	c0-0.7,0-1.4,0-2.1c0.5-0.3,1-0.6,1.5-0.9c0,1,0,2,0,3c0.5,0,1,0,1.5,0c0,0.4,0,0.8,0,1.1c-0.5,0-1,0-1.5,0c0,1.7,0,3.4,0,5.1
	c0,0.4,0,0.7,0.1,0.8c0,0.1,0.1,0.2,0.2,0.3s0.3,0.1,0.5,0.1C195.1,39.4,195.3,39.3,195.6,39.3z"/>
<path class="st2" d="M204.3,37.8c0.5,0.1,1,0.1,1.5,0.2c-0.2,0.9-0.7,1.6-1.3,2.1s-1.5,0.7-2.5,0.7c-1.3,0-2.3-0.4-3-1.2
	s-1.1-1.9-1.1-3.3c0-1.5,0.4-2.6,1.1-3.4c0.8-0.8,1.7-1.2,2.9-1.2c1.2,0,2.1,0.4,2.8,1.2c0.7,0.8,1.1,1.9,1.1,3.3c0,0.1,0,0.2,0,0.4
	c-2.1,0-4.3,0-6.4,0c0.1,0.9,0.3,1.7,0.8,2.2c0.5,0.5,1.1,0.8,1.8,0.8c0.5,0,1-0.1,1.4-0.4C203.8,38.9,204.1,38.4,204.3,37.8z
	 M199.5,35.4c1.6,0,3.2,0,4.8,0c-0.1-0.7-0.2-1.3-0.6-1.6c-0.5-0.6-1.1-0.8-1.8-0.8c-0.7,0-1.2,0.2-1.7,0.7
	C199.8,34.1,199.5,34.7,199.5,35.4z"/>
<path class="st2" d="M213,37.4c0.5,0.1,1,0.1,1.4,0.2c-0.2,1-0.6,1.8-1.2,2.3c-0.6,0.6-1.4,0.8-2.4,0.8c-1.2,0-2.1-0.4-2.8-1.2
	c-0.7-0.8-1.1-1.9-1.1-3.3c0-0.9,0.2-1.7,0.5-2.4c0.3-0.7,0.8-1.2,1.4-1.6c0.6-0.4,1.3-0.5,2.1-0.5c0.9,0,1.7,0.2,2.3,0.7
	c0.6,0.5,1,1.2,1.1,2c-0.5,0.1-0.9,0.1-1.4,0.2c-0.1-0.6-0.4-1-0.7-1.3c-0.3-0.3-0.8-0.4-1.2-0.4c-0.7,0-1.3,0.3-1.8,0.8
	c-0.5,0.5-0.7,1.4-0.7,2.5c0,1.2,0.2,2,0.7,2.5c0.4,0.5,1,0.8,1.7,0.8c0.6,0,1.1-0.2,1.4-0.5C212.7,38.7,212.9,38.2,213,37.4z"/>
<path class="st2" d="M219.6,39.3c0.1,0.4,0.1,0.9,0.2,1.3c-0.4,0.1-0.8,0.1-1.1,0.1c-0.5,0-0.9-0.1-1.2-0.3
	c-0.3-0.2-0.5-0.4-0.6-0.7c-0.1-0.3-0.2-0.9-0.2-1.7c0-1.7,0-3.3,0-5c-0.4,0-0.7,0-1.1,0c0-0.4,0-0.8,0-1.1c0.4,0,0.7,0,1.1,0
	c0-0.7,0-1.4,0-2.1c0.5-0.3,1-0.6,1.5-0.9c0,1,0,2,0,3c0.5,0,1,0,1.5,0c0,0.4,0,0.8,0,1.1c-0.5,0-1,0-1.5,0c0,1.7,0,3.4,0,5.1
	c0,0.4,0,0.7,0.1,0.8c0,0.1,0.1,0.2,0.2,0.3s0.3,0.1,0.5,0.1C219.1,39.4,219.3,39.3,219.6,39.3z"/>
<path class="st2" d="M228.1,40.6c0-0.4,0-0.8,0-1.3c-0.7,1-1.6,1.5-2.7,1.5c-0.5,0-1-0.1-1.4-0.3c-0.4-0.2-0.8-0.4-1-0.7
	s-0.4-0.7-0.4-1.1c-0.1-0.3-0.1-0.7-0.1-1.4c0-1.8,0-3.6,0-5.4c0.5,0,1,0,1.5,0c0,1.6,0,3.2,0,4.8c0,0.8,0,1.3,0.1,1.5
	c0.1,0.4,0.3,0.7,0.6,0.9c0.3,0.2,0.7,0.3,1.1,0.3c0.4,0,0.9-0.1,1.2-0.3s0.7-0.5,0.8-0.9c0.2-0.4,0.2-0.9,0.2-1.7
	c0-1.5,0-3.1,0-4.6c0.5,0,1,0,1.5,0c0,2.9,0,5.8,0,8.7C228.9,40.6,228.5,40.6,228.1,40.6z"/>
<path class="st2" d="M231.4,40.6c0-2.9,0-5.8,0-8.7c0.4,0,0.9,0,1.3,0c0,0.4,0,0.9,0,1.3c0.3-0.6,0.6-1,0.9-1.2
	c0.3-0.2,0.6-0.3,0.9-0.3c0.5,0,1,0.2,1.5,0.5c-0.2,0.5-0.3,0.9-0.5,1.4c-0.4-0.2-0.7-0.3-1.1-0.3c-0.3,0-0.6,0.1-0.9,0.3
	c-0.3,0.2-0.4,0.5-0.6,0.8c-0.2,0.5-0.2,1.1-0.2,1.7c0,1.5,0,3,0,4.5C232.3,40.6,231.9,40.6,231.4,40.6z"/>
<path class="st2" d="M243.3,37.8c0.5,0.1,1,0.1,1.5,0.2c-0.2,0.9-0.7,1.6-1.3,2.1s-1.5,0.7-2.5,0.7c-1.3,0-2.3-0.4-3-1.2
	c-0.7-0.8-1.1-1.9-1.1-3.3c0-1.5,0.4-2.6,1.1-3.4c0.8-0.8,1.7-1.2,2.9-1.2c1.1,0,2.1,0.4,2.8,1.2c0.7,0.8,1.1,1.9,1.1,3.3
	c0,0.1,0,0.2,0,0.4c-2.1,0-4.3,0-6.4,0c0.1,0.9,0.3,1.7,0.8,2.2c0.5,0.5,1.1,0.8,1.8,0.8c0.5,0,1-0.1,1.4-0.4
	C242.8,38.9,243.1,38.4,243.3,37.8z M238.5,35.4c1.6,0,3.2,0,4.8,0c-0.1-0.7-0.2-1.3-0.6-1.6c-0.5-0.6-1.1-0.8-1.8-0.8
	c-0.7,0-1.2,0.2-1.7,0.7C238.8,34.1,238.5,34.7,238.5,35.4z"/>
<path class="st3" d="M314.6,25.1c0-3.3-2.7-6-6-6c-8.4,0-16.8,0-25.2,0c-3.3,0-6,2.7-6,6c0,3.6,0,7.2,0,10.8c0,3.3,2.7,6,6,6
	c8.4,0,16.8,0,25.2,0c3.3,0,6-2.7,6-6C314.6,32.3,314.6,28.7,314.6,25.1z"/>
<path class="st0" d="M293,36.4c-0.8,0-1.5,0-2.3,0c0-2.9,0-5.7,0-8.6c-0.8,0.8-1.8,1.4-3,1.7c0-0.7,0-1.4,0-2.1
	c0.6-0.2,1.2-0.6,1.9-1.1c0.7-0.6,1.2-1.2,1.4-1.9c0.6,0,1.2,0,1.9,0C293,28.4,293,32.4,293,36.4z"/>
<path class="st0" d="M296.2,33.3c0.8-0.1,1.5-0.2,2.3-0.2c0.1,0.5,0.3,0.9,0.6,1.2c0.3,0.3,0.7,0.4,1.1,0.4c0.5,0,0.9-0.2,1.2-0.6
	c0.3-0.4,0.5-1,0.5-1.7c0-0.7-0.2-1.3-0.5-1.7c-0.3-0.4-0.8-0.6-1.3-0.6c-0.7,0-1.2,0.3-1.8,0.9c-0.6-0.1-1.2-0.2-1.9-0.3
	c0.4-2.1,0.8-4.1,1.2-6.2c2,0,4,0,6.1,0c0,0.7,0,1.4,0,2.1c-1.4,0-2.9,0-4.3,0c-0.1,0.7-0.2,1.4-0.4,2c0.5-0.2,1-0.4,1.6-0.4
	c1,0,1.9,0.4,2.6,1.1c0.7,0.7,1.1,1.7,1.1,2.9c0,1-0.3,1.9-0.9,2.6c-0.8,1-1.9,1.6-3.2,1.6c-1.1,0-2-0.3-2.7-0.9
	C296.8,35.1,296.4,34.3,296.2,33.3z"/>
<path class="st3" d="M327.9,36.9c0-5.8,0-11.7,0-17.5c2.5,0,5,0,7.5,0c1.9,0,3.2,0.2,4.1,0.5c0.8,0.3,1.5,0.9,2,1.7
	c0.5,0.8,0.8,1.7,0.8,2.8c0,1.3-0.4,2.4-1.2,3.2c-0.8,0.9-1.9,1.4-3.5,1.6c0.8,0.4,1.4,0.9,1.9,1.5c0.5,0.5,1.2,1.5,2,2.8
	c0.7,1.1,1.4,2.3,2.1,3.4c-1.4,0-2.8,0-4.2,0c-0.9-1.3-1.7-2.5-2.6-3.8c-0.9-1.4-1.5-2.2-1.9-2.6c-0.3-0.4-0.7-0.6-1.1-0.7
	s-1-0.2-1.8-0.2c-0.2,0-0.5,0-0.7,0c0,2.4,0,4.9,0,7.3C330.2,36.9,329,36.9,327.9,36.9z M331.4,26.7c0.9,0,1.7,0,2.6,0
	c1.7,0,2.8-0.1,3.2-0.2c0.4-0.1,0.8-0.4,1-0.7c0.2-0.4,0.4-0.8,0.4-1.3c0-0.6-0.2-1.1-0.5-1.4c-0.3-0.4-0.8-0.6-1.3-0.7
	c-0.3,0-1.1-0.1-2.6-0.1c-0.9,0-1.8,0-2.8,0C331.4,23.8,331.4,25.2,331.4,26.7z"/>
<path class="st3" d="M345.2,30.3c0-1.1,0.3-2.2,0.8-3.2c0.6-1.1,1.3-1.8,2.3-2.4c1-0.5,2.1-0.8,3.4-0.8c1.9,0,3.5,0.6,4.7,1.9
	s1.8,2.8,1.8,4.7c0,1.9-0.6,3.5-1.9,4.8c-1.2,1.3-2.8,1.9-4.7,1.9c-1.2,0-2.3-0.3-3.3-0.8c-1.1-0.5-1.9-1.3-2.4-2.3
	C345.5,33,345.2,31.8,345.2,30.3z M348.6,30.5c0,1.3,0.3,2.2,0.9,2.9c0.6,0.7,1.3,1,2.2,1c0.9,0,1.6-0.3,2.2-1
	c0.6-0.7,0.9-1.6,0.9-2.9c0-1.2-0.3-2.2-0.9-2.9c-0.6-0.7-1.3-1-2.2-1c-0.9,0-1.6,0.3-2.2,1C348.9,28.3,348.6,29.2,348.6,30.5z"/>
<path class="st3" d="M369.9,36.9c0-0.6,0-1.3,0-1.9c-0.5,0.7-1.1,1.2-1.8,1.6c-0.8,0.4-1.6,0.6-2.4,0.6c-0.9,0-1.6-0.2-2.3-0.6
	c-0.7-0.4-1.2-0.9-1.5-1.6c-0.3-0.7-0.5-1.6-0.5-2.8c0-2.7,0-5.4,0-8c1.1,0,2.2,0,3.4,0c0,1.9,0,3.9,0,5.8c0,1.8,0.1,2.9,0.2,3.3
	c0.1,0.4,0.4,0.7,0.7,1c0.3,0.2,0.7,0.4,1.2,0.4c0.6,0,1.1-0.2,1.5-0.5c0.5-0.3,0.8-0.7,0.9-1.2c0.2-0.5,0.3-1.6,0.3-3.4
	c0-1.8,0-3.6,0-5.4c1.1,0,2.2,0,3.4,0c0,4.2,0,8.5,0,12.7C372,36.9,370.9,36.9,369.9,36.9z"/>
<path class="st3" d="M382.9,24.2c0,0.9,0,1.8,0,2.7c-0.8,0-1.5,0-2.3,0c0,1.7,0,3.4,0,5.1c0,1,0,1.6,0.1,1.8
	c0.1,0.2,0.1,0.3,0.3,0.4c0.2,0.1,0.3,0.2,0.6,0.2c0.3,0,0.8-0.1,1.3-0.3c0.1,0.9,0.2,1.7,0.3,2.6c-0.8,0.3-1.7,0.5-2.7,0.5
	c-0.6,0-1.2-0.1-1.6-0.3c-0.5-0.2-0.8-0.5-1.1-0.8c-0.2-0.3-0.4-0.8-0.5-1.3c-0.1-0.4-0.1-1.2-0.1-2.4c0-1.8,0-3.7,0-5.5
	c-0.5,0-1,0-1.5,0c0-0.9,0-1.8,0-2.7c0.5,0,1,0,1.5,0c0-0.8,0-1.7,0-2.5c1.1-0.7,2.2-1.3,3.4-2c0,1.5,0,3,0,4.5
	C381.4,24.2,382.1,24.2,382.9,24.2z"/>
<path class="st3" d="M392.2,32.8c1.1,0.2,2.2,0.4,3.3,0.6c-0.4,1.2-1.1,2.2-2,2.8c-0.9,0.6-2.1,1-3.5,1c-2.2,0-3.8-0.7-4.9-2.2
	c-0.8-1.2-1.3-2.6-1.3-4.4c0-2.1,0.5-3.8,1.7-5c1.1-1.2,2.5-1.8,4.2-1.8c1.9,0,3.4,0.6,4.5,1.9s1.6,3.2,1.6,5.7c-2.8,0-5.6,0-8.4,0
	c0,1,0.3,1.8,0.8,2.3c0.5,0.6,1.2,0.8,1.9,0.8c0.5,0,1-0.1,1.3-0.4C391.8,33.9,392,33.4,392.2,32.8z M392.4,29.4
	c0-1-0.3-1.7-0.8-2.2s-1.1-0.8-1.7-0.8c-0.7,0-1.3,0.3-1.8,0.8c-0.5,0.5-0.7,1.3-0.7,2.2C389.1,29.4,390.7,29.4,392.4,29.4z"/>
<path class="st3" d="M401,36.9c-1.1,0-2.2,0-3.4,0c0-4.2,0-8.5,0-12.7c1,0,2.1,0,3.1,0c0,0.6,0,1.2,0,1.8c0.5-0.9,1-1.4,1.4-1.7
	s0.9-0.4,1.4-0.4c0.8,0,1.5,0.2,2.2,0.6c-0.3,1-0.7,2-1,2.9c-0.6-0.4-1.1-0.6-1.6-0.6c-0.5,0-0.9,0.1-1.2,0.4
	c-0.3,0.3-0.6,0.7-0.8,1.4c-0.2,0.7-0.3,2.1-0.3,4.2C401,34.2,401,35.5,401,36.9z"/>
<path class="st3" d="M408.8,27.5c0-1.1,0-2.2,0-3.4c1.1,0,2.2,0,3.4,0c0,1.1,0,2.2,0,3.4C411.1,27.5,409.9,27.5,408.8,27.5z
	 M408.8,36.9c0-1.1,0-2.2,0-3.4c1.1,0,2.2,0,3.4,0c0,1.1,0,2.2,0,3.4C411.1,36.9,409.9,36.9,408.8,36.9z"/>
<path class="st3" d="M422.3,24.2c0.6,0,1.2,0,1.9,0c0-0.3,0-0.6,0-1c0-1.1,0.1-1.9,0.3-2.4c0.2-0.5,0.6-0.9,1.3-1.3
	c0.6-0.3,1.4-0.5,2.3-0.5c0.9,0,1.9,0.1,2.8,0.4c-0.2,0.8-0.3,1.6-0.5,2.3c-0.5-0.1-1-0.2-1.5-0.2c-0.5,0-0.8,0.1-1.1,0.3
	c-0.2,0.2-0.3,0.7-0.3,1.3c0,0.3,0,0.6,0,0.9c0.8,0,1.7,0,2.5,0c0,0.9,0,1.8,0,2.6c-0.8,0-1.7,0-2.5,0c0,3.4,0,6.7,0,10.1
	c-1.1,0-2.2,0-3.4,0c0-3.4,0-6.7,0-10.1c-0.6,0-1.2,0-1.9,0C422.3,25.9,422.3,25,422.3,24.2z"/>
<path class="st3" d="M434.7,36.9c-1.1,0-2.2,0-3.4,0c0-4.2,0-8.5,0-12.7c1,0,2.1,0,3.1,0c0,0.6,0,1.2,0,1.8c0.5-0.9,1-1.4,1.4-1.7
	s0.9-0.4,1.4-0.4c0.8,0,1.5,0.2,2.2,0.6c-0.3,1-0.7,2-1,2.9c-0.6-0.4-1.1-0.6-1.6-0.6c-0.5,0-0.9,0.1-1.2,0.4
	c-0.3,0.3-0.6,0.7-0.8,1.4c-0.2,0.7-0.3,2.1-0.3,4.2C434.7,34.2,434.7,35.5,434.7,36.9z"/>
<path class="st3" d="M441.1,30.3c0-1.1,0.3-2.2,0.8-3.2c0.6-1.1,1.3-1.8,2.3-2.4c1-0.5,2.1-0.8,3.4-0.8c1.9,0,3.5,0.6,4.7,1.9
	c1.2,1.2,1.8,2.8,1.8,4.7c0,1.9-0.6,3.5-1.9,4.8c-1.2,1.3-2.8,1.9-4.7,1.9c-1.2,0-2.3-0.3-3.3-0.8c-1.1-0.5-1.9-1.3-2.4-2.3
	C441.4,33,441.1,31.8,441.1,30.3z M444.6,30.5c0,1.3,0.3,2.2,0.9,2.9c0.6,0.7,1.3,1,2.2,1c0.9,0,1.6-0.3,2.2-1
	c0.6-0.7,0.9-1.6,0.9-2.9c0-1.2-0.3-2.2-0.9-2.9c-0.6-0.7-1.3-1-2.2-1c-0.9,0-1.6,0.3-2.2,1C444.8,28.3,444.6,29.2,444.6,30.5z"/>
<path class="st3" d="M457.2,24.2c1,0,2.1,0,3.1,0c0,0.6,0,1.2,0,1.7c1.1-1.3,2.4-2,4-2c0.8,0,1.5,0.2,2.1,0.5
	c0.6,0.3,1.1,0.8,1.5,1.5c0.6-0.7,1.2-1.2,1.8-1.5c0.6-0.3,1.3-0.5,2.1-0.5c0.9,0,1.7,0.2,2.4,0.6c0.6,0.4,1.1,0.9,1.4,1.7
	c0.2,0.5,0.4,1.4,0.4,2.6c0,2.7,0,5.4,0,8.1c-1.1,0-2.2,0-3.4,0c0-2.4,0-4.8,0-7.3c0-1.3-0.1-2.1-0.3-2.4c-0.3-0.5-0.8-0.7-1.4-0.7
	c-0.5,0-0.9,0.1-1.3,0.4c-0.4,0.3-0.7,0.7-0.9,1.3c-0.2,0.6-0.3,1.4-0.3,2.6c0,2,0,4.1,0,6.1c-1.1,0-2.2,0-3.4,0c0-2.3,0-4.6,0-7
	c0-1.2-0.1-2-0.2-2.4c-0.1-0.4-0.3-0.6-0.6-0.8c-0.3-0.2-0.6-0.3-1-0.3c-0.5,0-1,0.1-1.4,0.4c-0.4,0.3-0.7,0.7-0.9,1.2
	c-0.2,0.5-0.3,1.4-0.3,2.6c0,2.1,0,4.1,0,6.2c-1.1,0-2.2,0-3.4,0C457.2,32.6,457.2,28.4,457.2,24.2z"/>
<path class="st3" d="M484.5,24.2c0.6,0,1.2,0,1.9,0c0-0.3,0-0.6,0-1c0-1.1,0.1-1.9,0.3-2.4c0.2-0.5,0.6-0.9,1.3-1.3
	c0.6-0.3,1.4-0.5,2.3-0.5c1,0,1.9,0.1,2.8,0.4c-0.2,0.8-0.3,1.6-0.5,2.3c-0.5-0.1-1-0.2-1.5-0.2c-0.5,0-0.8,0.1-1.1,0.3
	c-0.2,0.2-0.3,0.7-0.3,1.3c0,0.3,0,0.6,0,0.9c0.8,0,1.7,0,2.5,0c0,0.9,0,1.8,0,2.6c-0.8,0-1.7,0-2.5,0c0,3.4,0,6.7,0,10.1
	c-1.1,0-2.2,0-3.4,0c0-3.4,0-6.7,0-10.1c-0.6,0-1.2,0-1.9,0C484.5,25.9,484.5,25,484.5,24.2z"/>
<path class="st3" d="M501.1,32.8c1.1,0.2,2.2,0.4,3.3,0.6c-0.4,1.2-1.1,2.2-2,2.8c-0.9,0.6-2.1,1-3.5,1c-2.2,0-3.8-0.7-4.9-2.2
	c-0.8-1.2-1.3-2.6-1.3-4.4c0-2.1,0.5-3.8,1.6-5c1.1-1.2,2.5-1.8,4.2-1.8c1.9,0,3.4,0.6,4.5,1.9s1.6,3.2,1.6,5.7c-2.8,0-5.6,0-8.4,0
	c0,1,0.3,1.8,0.8,2.3c0.5,0.6,1.2,0.8,1.9,0.8c0.5,0,1-0.1,1.3-0.4C500.6,33.9,500.9,33.4,501.1,32.8z M501.3,29.4
	c0-1-0.3-1.7-0.8-2.2s-1.1-0.8-1.7-0.8c-0.7,0-1.3,0.3-1.8,0.8c-0.5,0.5-0.7,1.3-0.7,2.2C497.9,29.4,499.6,29.4,501.3,29.4z"/>
<path class="st3" d="M509.2,28c-1-0.2-2-0.4-3-0.6c0.3-1.2,0.9-2.1,1.8-2.7c0.8-0.6,2.1-0.9,3.7-0.9c1.5,0,2.6,0.2,3.4,0.5
	c0.7,0.4,1.2,0.8,1.6,1.3c0.3,0.5,0.4,1.6,0.4,3c0,1.3,0,2.6,0,3.9c0,1.1,0.1,1.9,0.2,2.5c0.1,0.5,0.3,1.1,0.6,1.7
	c-1.1,0-2.2,0-3.3,0c-0.1-0.2-0.2-0.6-0.3-1c-0.1-0.2-0.1-0.3-0.1-0.4c-0.6,0.6-1.2,1-1.8,1.3c-0.6,0.3-1.3,0.4-2.1,0.4
	c-1.3,0-2.3-0.4-3.1-1.1c-0.8-0.7-1.1-1.6-1.1-2.7c0-0.7,0.2-1.4,0.5-1.9c0.3-0.6,0.8-1,1.4-1.3c0.6-0.3,1.5-0.6,2.7-0.8
	c1.6-0.3,2.7-0.6,3.3-0.8c0-0.1,0-0.2,0-0.3c0-0.6-0.2-1.1-0.5-1.4c-0.3-0.3-0.9-0.4-1.8-0.4c-0.6,0-1.1,0.1-1.4,0.4
	C509.7,27,509.4,27.4,509.2,28z M513.7,30.8c-0.4,0.1-1.1,0.3-2,0.5c-0.9,0.2-1.5,0.4-1.8,0.6c-0.4,0.3-0.7,0.7-0.7,1.2
	s0.2,0.9,0.5,1.2c0.3,0.3,0.8,0.5,1.3,0.5c0.6,0,1.2-0.2,1.7-0.6c0.4-0.3,0.7-0.7,0.8-1.1c0.1-0.3,0.1-0.8,0.1-1.6
	C513.7,31.2,513.7,31,513.7,30.8z"/>
<path class="st3" d="M525.5,24.2c0,0.9,0,1.8,0,2.7c-0.8,0-1.5,0-2.3,0c0,1.7,0,3.4,0,5.1c0,1,0,1.6,0.1,1.8
	c0.1,0.2,0.1,0.3,0.3,0.4c0.2,0.1,0.3,0.2,0.6,0.2c0.3,0,0.8-0.1,1.3-0.3c0.1,0.9,0.2,1.7,0.3,2.6c-0.8,0.3-1.7,0.5-2.7,0.5
	c-0.6,0-1.2-0.1-1.6-0.3c-0.5-0.2-0.8-0.5-1.1-0.8c-0.2-0.3-0.4-0.8-0.5-1.3c-0.1-0.4-0.1-1.2-0.1-2.4c0-1.8,0-3.7,0-5.5
	c-0.5,0-1,0-1.5,0c0-0.9,0-1.8,0-2.7c0.5,0,1,0,1.5,0c0-0.8,0-1.7,0-2.5c1.1-0.7,2.2-1.3,3.4-2c0,1.5,0,3,0,4.5
	C523.9,24.2,524.7,24.2,525.5,24.2z"/>
<path class="st3" d="M535.8,36.9c0-0.6,0-1.3,0-1.9c-0.5,0.7-1.1,1.2-1.8,1.6c-0.8,0.4-1.6,0.6-2.4,0.6c-0.9,0-1.6-0.2-2.3-0.6
	c-0.7-0.4-1.2-0.9-1.5-1.6c-0.3-0.7-0.5-1.6-0.5-2.8c0-2.7,0-5.4,0-8c1.1,0,2.2,0,3.4,0c0,1.9,0,3.9,0,5.8c0,1.8,0.1,2.9,0.2,3.3
	c0.1,0.4,0.4,0.7,0.7,1c0.3,0.2,0.7,0.4,1.2,0.4c0.6,0,1.1-0.2,1.5-0.5c0.5-0.3,0.8-0.7,0.9-1.2c0.2-0.5,0.3-1.6,0.3-3.4
	c0-1.8,0-3.6,0-5.4c1.1,0,2.2,0,3.4,0c0,4.2,0,8.5,0,12.7C537.9,36.9,536.8,36.9,535.8,36.9z"/>
<path class="st3" d="M546.2,36.9c-1.1,0-2.2,0-3.4,0c0-4.2,0-8.5,0-12.7c1,0,2.1,0,3.1,0c0,0.6,0,1.2,0,1.8c0.5-0.9,1-1.4,1.4-1.7
	s0.9-0.4,1.4-0.4c0.8,0,1.5,0.2,2.2,0.6c-0.3,1-0.7,2-1,2.9c-0.6-0.4-1.1-0.6-1.6-0.6c-0.5,0-0.9,0.1-1.2,0.4
	c-0.3,0.3-0.6,0.7-0.8,1.4c-0.2,0.7-0.3,2.1-0.3,4.2C546.2,34.2,546.2,35.5,546.2,36.9z"/>
<path class="st3" d="M560.7,32.8c1.1,0.2,2.2,0.4,3.3,0.6c-0.4,1.2-1.1,2.2-2,2.8c-0.9,0.6-2.1,1-3.5,1c-2.2,0-3.8-0.7-4.9-2.2
	c-0.8-1.2-1.3-2.6-1.3-4.4c0-2.1,0.5-3.8,1.6-5c1.1-1.2,2.5-1.8,4.2-1.8c1.9,0,3.4,0.6,4.5,1.9s1.6,3.2,1.6,5.7c-2.8,0-5.6,0-8.4,0
	c0,1,0.3,1.8,0.8,2.3c0.5,0.6,1.2,0.8,1.9,0.8c0.5,0,1-0.1,1.3-0.4C560.3,33.9,560.5,33.4,560.7,32.8z M560.9,29.4
	c0-1-0.3-1.7-0.8-2.2s-1.1-0.8-1.7-0.8c-0.7,0-1.3,0.3-1.8,0.8c-0.5,0.5-0.7,1.3-0.7,2.2C557.6,29.4,559.2,29.4,560.9,29.4z"/>
<path class="st3" d="M577.6,36.9c-1.7-4.2-3.4-8.5-5.1-12.7c1.2,0,2.3,0,3.5,0c0.8,2.2,1.6,4.3,2.4,6.5c0.2,0.7,0.5,1.4,0.7,2.2
	c0.2-0.5,0.3-0.9,0.3-1.1c0.1-0.4,0.2-0.7,0.4-1.1c0.8-2.2,1.6-4.3,2.4-6.5c1.2,0,2.3,0,3.5,0c-1.7,4.2-3.4,8.5-5,12.7
	C579.6,36.9,578.6,36.9,577.6,36.9z"/>
<path class="st3" d="M594.4,32.8c1.1,0.2,2.2,0.4,3.3,0.6c-0.4,1.2-1.1,2.2-2,2.8c-0.9,0.6-2.1,1-3.5,1c-2.2,0-3.8-0.7-4.9-2.2
	c-0.8-1.2-1.3-2.6-1.3-4.4c0-2.1,0.5-3.8,1.6-5c1.1-1.2,2.5-1.8,4.2-1.8c1.9,0,3.4,0.6,4.5,1.9s1.6,3.2,1.6,5.7c-2.8,0-5.6,0-8.4,0
	c0,1,0.3,1.8,0.8,2.3c0.5,0.6,1.2,0.8,1.9,0.8c0.5,0,1-0.1,1.3-0.4C594,33.9,594.2,33.4,594.4,32.8z M594.6,29.4
	c0-1-0.3-1.7-0.8-2.2s-1.1-0.8-1.7-0.8c-0.7,0-1.3,0.3-1.8,0.8c-0.5,0.5-0.7,1.3-0.7,2.2C591.3,29.4,592.9,29.4,594.6,29.4z"/>
<path class="st3" d="M611.1,27.9c-1.1,0.2-2.2,0.4-3.3,0.6c-0.1-0.7-0.4-1.2-0.8-1.5c-0.4-0.3-0.9-0.5-1.5-0.5c-0.8,0-1.5,0.3-2,0.9
	c-0.5,0.6-0.7,1.6-0.7,2.9c0,1.5,0.2,2.6,0.8,3.2c0.5,0.6,1.2,0.9,2,0.9c0.6,0,1.2-0.2,1.6-0.5c0.4-0.4,0.7-1,0.9-1.9
	c1.1,0.2,2.2,0.4,3.3,0.6c-0.3,1.5-1,2.7-2,3.4c-1,0.8-2.3,1.2-3.9,1.2c-1.9,0-3.3-0.6-4.4-1.8c-1.1-1.2-1.7-2.8-1.7-4.9
	c0-2.1,0.6-3.7,1.7-4.9c1.1-1.2,2.6-1.8,4.5-1.8c1.6,0,2.8,0.3,3.7,1C610,25.5,610.7,26.5,611.1,27.9z"/>
<path class="st3" d="M618.8,24.2c0,0.9,0,1.8,0,2.7c-0.8,0-1.5,0-2.3,0c0,1.7,0,3.4,0,5.1c0,1,0,1.6,0.1,1.8
	c0.1,0.2,0.1,0.3,0.3,0.4c0.2,0.1,0.3,0.2,0.6,0.2c0.3,0,0.8-0.1,1.3-0.3c0.1,0.9,0.2,1.7,0.3,2.6c-0.8,0.3-1.7,0.5-2.7,0.5
	c-0.6,0-1.2-0.1-1.6-0.3c-0.5-0.2-0.8-0.5-1.1-0.8c-0.2-0.3-0.4-0.8-0.5-1.3c-0.1-0.4-0.1-1.2-0.1-2.4c0-1.8,0-3.7,0-5.5
	c-0.5,0-1,0-1.5,0c0-0.9,0-1.8,0-2.7c0.5,0,1,0,1.5,0c0-0.8,0-1.7,0-2.5c1.1-0.7,2.2-1.3,3.4-2c0,1.5,0,3,0,4.5
	C617.3,24.2,618,24.2,618.8,24.2z"/>
<path class="st3" d="M620,30.3c0-1.1,0.3-2.2,0.8-3.2c0.6-1.1,1.3-1.8,2.3-2.4c1-0.5,2.1-0.8,3.4-0.8c1.9,0,3.5,0.6,4.7,1.9
	c1.2,1.2,1.8,2.8,1.8,4.7c0,1.9-0.6,3.5-1.9,4.8c-1.2,1.3-2.8,1.9-4.7,1.9c-1.2,0-2.3-0.3-3.3-0.8s-1.9-1.3-2.4-2.3
	C620.3,33,620,31.8,620,30.3z M623.4,30.5c0,1.3,0.3,2.2,0.9,2.9c0.6,0.7,1.3,1,2.2,1c0.9,0,1.6-0.3,2.2-1c0.6-0.7,0.9-1.6,0.9-2.9
	c0-1.2-0.3-2.2-0.9-2.9c-0.6-0.7-1.3-1-2.2-1c-0.9,0-1.6,0.3-2.2,1C623.7,28.3,623.4,29.2,623.4,30.5z"/>
<path class="st3" d="M639.5,36.9c-1.1,0-2.2,0-3.4,0c0-4.2,0-8.5,0-12.7c1,0,2.1,0,3.1,0c0,0.6,0,1.2,0,1.8c0.5-0.9,1-1.4,1.4-1.7
	s0.9-0.4,1.4-0.4c0.8,0,1.5,0.2,2.2,0.6c-0.3,1-0.7,2-1,2.9c-0.6-0.4-1.1-0.6-1.6-0.6c-0.5,0-0.9,0.1-1.2,0.4
	c-0.3,0.3-0.6,0.7-0.8,1.4c-0.2,0.7-0.3,2.1-0.3,4.2C639.5,34.2,639.5,35.5,639.5,36.9z"/>
<path class="st3" d="M660.3,24.2c0,0.9,0,1.8,0,2.7c-0.8,0-1.5,0-2.3,0c0,1.7,0,3.4,0,5.1c0,1,0,1.6,0.1,1.8
	c0.1,0.2,0.1,0.3,0.3,0.4c0.2,0.1,0.3,0.2,0.6,0.2c0.3,0,0.8-0.1,1.3-0.3c0.1,0.9,0.2,1.7,0.3,2.6c-0.8,0.3-1.7,0.5-2.7,0.5
	c-0.6,0-1.2-0.1-1.6-0.3c-0.5-0.2-0.8-0.5-1.1-0.8c-0.2-0.3-0.4-0.8-0.5-1.3c-0.1-0.4-0.1-1.2-0.1-2.4c0-1.8,0-3.7,0-5.5
	c-0.5,0-1,0-1.5,0c0-0.9,0-1.8,0-2.7c0.5,0,1,0,1.5,0c0-0.8,0-1.7,0-2.5c1.1-0.7,2.2-1.3,3.4-2c0,1.5,0,3,0,4.5
	C658.7,24.2,659.5,24.2,660.3,24.2z"/>
<path class="st3" d="M661.5,30.3c0-1.1,0.3-2.2,0.8-3.2c0.6-1.1,1.3-1.8,2.3-2.4c1-0.5,2.1-0.8,3.4-0.8c1.9,0,3.5,0.6,4.7,1.9
	s1.8,2.8,1.8,4.7c0,1.9-0.6,3.5-1.9,4.8s-2.8,1.9-4.7,1.9c-1.2,0-2.3-0.3-3.3-0.8c-1.1-0.5-1.9-1.3-2.4-2.3
	C661.7,33,661.5,31.8,661.5,30.3z M664.9,30.5c0,1.3,0.3,2.2,0.9,2.9c0.6,0.7,1.3,1,2.2,1c0.9,0,1.6-0.3,2.2-1
	c0.6-0.7,0.9-1.6,0.9-2.9c0-1.2-0.3-2.2-0.9-2.9c-0.6-0.7-1.3-1-2.2-1c-0.9,0-1.6,0.3-2.2,1C665.2,28.3,664.9,29.2,664.9,30.5z"/>
<path class="st3" d="M688.8,36.9c-1.1,0-2.2,0-3.4,0c0-4.2,0-8.5,0-12.7c1,0,2.1,0,3.1,0c0,0.6,0,1.2,0,1.8c0.5-0.9,1-1.4,1.4-1.7
	s0.9-0.4,1.4-0.4c0.8,0,1.5,0.2,2.2,0.6c-0.3,1-0.7,2-1,2.9c-0.6-0.4-1.1-0.6-1.6-0.6c-0.5,0-0.9,0.1-1.2,0.4
	c-0.3,0.3-0.6,0.7-0.8,1.4c-0.2,0.7-0.3,2.1-0.3,4.2C688.8,34.2,688.8,35.5,688.8,36.9z"/>
<path class="st3" d="M695.2,30.3c0-1.1,0.3-2.2,0.8-3.2c0.6-1.1,1.3-1.8,2.3-2.4c1-0.5,2.1-0.8,3.4-0.8c1.9,0,3.5,0.6,4.7,1.9
	c1.2,1.2,1.8,2.8,1.8,4.7c0,1.9-0.6,3.5-1.9,4.8s-2.8,1.9-4.7,1.9c-1.2,0-2.3-0.3-3.3-0.8c-1.1-0.5-1.9-1.3-2.4-2.3
	C695.4,33,695.2,31.8,695.2,30.3z M698.6,30.5c0,1.3,0.3,2.2,0.9,2.9c0.6,0.7,1.3,1,2.2,1c0.9,0,1.6-0.3,2.2-1
	c0.6-0.7,0.9-1.6,0.9-2.9c0-1.2-0.3-2.2-0.9-2.9c-0.6-0.7-1.3-1-2.2-1c-0.9,0-1.6,0.3-2.2,1C698.9,28.3,698.6,29.2,698.6,30.5z"/>
<path class="st3" d="M719.8,36.9c0-0.6,0-1.3,0-1.9c-0.5,0.7-1.1,1.2-1.8,1.6c-0.8,0.4-1.5,0.6-2.4,0.6c-0.8,0-1.6-0.2-2.3-0.6
	c-0.7-0.4-1.2-0.9-1.5-1.6s-0.5-1.6-0.5-2.8c0-2.7,0-5.4,0-8c1.1,0,2.2,0,3.4,0c0,1.9,0,3.9,0,5.8c0,1.8,0.1,2.9,0.2,3.3
	c0.1,0.4,0.4,0.7,0.7,1c0.3,0.2,0.7,0.4,1.2,0.4c0.6,0,1.1-0.2,1.5-0.5c0.5-0.3,0.8-0.7,0.9-1.2c0.2-0.5,0.3-1.6,0.3-3.4
	c0-1.8,0-3.6,0-5.4c1.1,0,2.2,0,3.4,0c0,4.2,0,8.5,0,12.7C721.9,36.9,720.9,36.9,719.8,36.9z"/>
<path class="st3" d="M732.9,24.2c0,0.9,0,1.8,0,2.7c-0.8,0-1.5,0-2.3,0c0,1.7,0,3.4,0,5.1c0,1,0,1.6,0.1,1.8
	c0.1,0.2,0.1,0.3,0.3,0.4c0.2,0.1,0.3,0.2,0.6,0.2c0.3,0,0.8-0.1,1.3-0.3c0.1,0.9,0.2,1.7,0.3,2.6c-0.8,0.3-1.7,0.5-2.7,0.5
	c-0.6,0-1.2-0.1-1.6-0.3c-0.5-0.2-0.8-0.5-1.1-0.8c-0.2-0.3-0.4-0.8-0.5-1.3c-0.1-0.4-0.1-1.2-0.1-2.4c0-1.8,0-3.7,0-5.5
	c-0.5,0-1,0-1.5,0c0-0.9,0-1.8,0-2.7c0.5,0,1,0,1.5,0c0-0.8,0-1.7,0-2.5c1.1-0.7,2.2-1.3,3.4-2c0,1.5,0,3,0,4.5
	C731.3,24.2,732.1,24.2,732.9,24.2z"/>
<path class="st3" d="M734.8,22.4c0-1,0-2.1,0-3.1c1.1,0,2.2,0,3.4,0c0,1,0,2.1,0,3.1C737.1,22.4,735.9,22.4,734.8,22.4z M734.8,36.9
	c0-4.2,0-8.5,0-12.7c1.1,0,2.2,0,3.4,0c0,4.2,0,8.5,0,12.7C737.1,36.9,735.9,36.9,734.8,36.9z"/>
<path class="st3" d="M754.1,36.9c-1.1,0-2.2,0-3.4,0c0-2.2,0-4.3,0-6.5c0-1.4-0.1-2.3-0.2-2.7c-0.1-0.4-0.4-0.7-0.7-0.9
	s-0.7-0.3-1.2-0.3c-0.6,0-1.1,0.2-1.6,0.5c-0.5,0.3-0.8,0.7-1,1.3c-0.2,0.5-0.2,1.5-0.2,2.9c0,1.9,0,3.8,0,5.8c-1.1,0-2.2,0-3.4,0
	c0-4.2,0-8.5,0-12.7c1,0,2.1,0,3.1,0c0,0.6,0,1.2,0,1.9c1.1-1.4,2.5-2.1,4.2-2.1c0.8,0,1.4,0.1,2,0.4c0.6,0.3,1.1,0.6,1.4,1
	c0.3,0.4,0.5,0.9,0.7,1.4c0.1,0.5,0.2,1.3,0.2,2.3C754.1,31.6,754.1,34.2,754.1,36.9z"/>
<path class="st3" d="M757.8,37.7c1.3,0.2,2.6,0.3,3.8,0.5c0.1,0.4,0.2,0.8,0.4,0.9c0.3,0.2,0.8,0.4,1.5,0.4c0.9,0,1.5-0.1,2-0.4
	c0.3-0.2,0.5-0.5,0.7-0.9c0.1-0.3,0.2-0.8,0.2-1.5c0-0.6,0-1.2,0-1.9c-1,1.4-2.3,2.1-3.8,2.1c-1.7,0-3.1-0.7-4.1-2.2
	c-0.8-1.1-1.2-2.6-1.2-4.3c0-2.1,0.5-3.8,1.5-4.9c1-1.1,2.3-1.7,3.8-1.7c1.6,0,2.9,0.7,3.9,2.1c0-0.6,0-1.2,0-1.8c1,0,2.1,0,3.1,0
	c0,3.8,0,7.6,0,11.4c0,1.5-0.1,2.6-0.4,3.4c-0.3,0.7-0.6,1.3-1,1.7c-0.4,0.4-1,0.8-1.8,1c-0.7,0.2-1.7,0.4-2.8,0.4
	c-2.1,0-3.7-0.4-4.6-1.1c-0.9-0.7-1.3-1.7-1.3-2.8C757.8,38,757.8,37.8,757.8,37.7z M760.8,30.2c0,1.3,0.3,2.3,0.8,3
	c0.5,0.6,1.2,0.9,1.9,0.9c0.8,0,1.5-0.3,2.1-1c0.6-0.6,0.8-1.6,0.8-2.9c0-1.3-0.3-2.3-0.8-2.9c-0.5-0.6-1.2-0.9-2.1-0.9
	c-0.8,0-1.5,0.3-2,0.9C761.1,28,760.8,29,760.8,30.2z"/>
<path class="st3" d="M780.3,33.2c1.1-0.2,2.2-0.3,3.4-0.5c0.1,0.6,0.4,1.1,0.9,1.5c0.4,0.3,1.1,0.5,1.8,0.5c0.9,0,1.5-0.2,2-0.5
	c0.3-0.2,0.4-0.5,0.4-0.9c0-0.3-0.1-0.5-0.2-0.6c-0.2-0.2-0.5-0.3-1.1-0.4c-2.7-0.6-4.4-1.1-5.2-1.6c-1-0.7-1.5-1.6-1.5-2.9
	c0-1.1,0.4-2,1.3-2.8c0.9-0.8,2.2-1.1,4-1.1c1.7,0,3,0.3,3.9,0.9c0.8,0.6,1.4,1.4,1.7,2.5c-1.1,0.2-2.1,0.4-3.2,0.6
	c-0.1-0.5-0.4-0.9-0.8-1.1c-0.4-0.3-0.9-0.4-1.6-0.4c-0.9,0-1.5,0.1-1.9,0.4c-0.3,0.2-0.4,0.4-0.4,0.7c0,0.2,0.1,0.4,0.3,0.6
	c0.3,0.2,1.3,0.5,3.1,0.9c1.8,0.4,3,0.9,3.7,1.5c0.7,0.6,1.1,1.4,1.1,2.5c0,1.2-0.5,2.2-1.5,3c-1,0.8-2.4,1.3-4.3,1.3
	c-1.7,0-3.1-0.3-4.1-1.1C781.3,35.4,780.6,34.4,780.3,33.2z"/>
<path class="st3" d="M805.5,27.9c-1.1,0.2-2.2,0.4-3.3,0.6c-0.1-0.7-0.4-1.2-0.8-1.5c-0.4-0.3-0.9-0.5-1.5-0.5c-0.8,0-1.5,0.3-2,0.9
	c-0.5,0.6-0.7,1.6-0.7,2.9c0,1.5,0.2,2.6,0.8,3.2c0.5,0.6,1.2,0.9,2,0.9c0.6,0,1.2-0.2,1.6-0.5c0.4-0.4,0.7-1,0.9-1.9
	c1.1,0.2,2.2,0.4,3.3,0.6c-0.3,1.5-1,2.7-2,3.4c-1,0.8-2.3,1.2-3.9,1.2c-1.9,0-3.3-0.6-4.4-1.8c-1.1-1.2-1.7-2.8-1.7-4.9
	c0-2.1,0.6-3.7,1.7-4.9c1.1-1.2,2.6-1.8,4.5-1.8c1.6,0,2.8,0.3,3.7,1C804.5,25.5,805.1,26.5,805.5,27.9z"/>
<path class="st3" d="M806.6,30.3c0-1.1,0.3-2.2,0.8-3.2c0.6-1.1,1.3-1.8,2.3-2.4c1-0.5,2.1-0.8,3.4-0.8c1.9,0,3.5,0.6,4.7,1.9
	s1.8,2.8,1.8,4.7c0,1.9-0.6,3.5-1.9,4.8c-1.2,1.3-2.8,1.9-4.7,1.9c-1.2,0-2.3-0.3-3.3-0.8c-1.1-0.5-1.9-1.3-2.4-2.3
	C806.9,33,806.6,31.8,806.6,30.3z M810.1,30.5c0,1.3,0.3,2.2,0.9,2.9c0.6,0.7,1.3,1,2.2,1c0.9,0,1.6-0.3,2.2-1
	c0.6-0.7,0.9-1.6,0.9-2.9c0-1.2-0.3-2.2-0.9-2.9c-0.6-0.7-1.3-1-2.2-1c-0.9,0-1.6,0.3-2.2,1C810.4,28.3,810.1,29.2,810.1,30.5z"/>
<path class="st3" d="M826.2,36.9c-1.1,0-2.2,0-3.4,0c0-4.2,0-8.5,0-12.7c1,0,2.1,0,3.1,0c0,0.6,0,1.2,0,1.8c0.5-0.9,1-1.4,1.4-1.7
	s0.9-0.4,1.4-0.4c0.8,0,1.5,0.2,2.2,0.6c-0.3,1-0.7,2-1,2.9c-0.6-0.4-1.1-0.6-1.6-0.6c-0.5,0-0.9,0.1-1.2,0.4
	c-0.3,0.3-0.6,0.7-0.8,1.4c-0.2,0.7-0.3,2.1-0.3,4.2C826.2,34.2,826.2,35.5,826.2,36.9z"/>
<path class="st3" d="M840.7,32.8c1.1,0.2,2.2,0.4,3.3,0.6c-0.4,1.2-1.1,2.2-2,2.8c-0.9,0.6-2.1,1-3.5,1c-2.2,0-3.8-0.7-4.9-2.2
	c-0.8-1.2-1.3-2.6-1.3-4.4c0-2.1,0.5-3.8,1.6-5c1.1-1.2,2.5-1.8,4.2-1.8c1.9,0,3.4,0.6,4.5,1.9s1.6,3.2,1.6,5.7c-2.8,0-5.6,0-8.4,0
	c0,1,0.3,1.8,0.8,2.3c0.5,0.6,1.2,0.8,1.9,0.8c0.5,0,1-0.1,1.3-0.4C840.2,33.9,840.5,33.4,840.7,32.8z M840.9,29.4
	c0-1-0.3-1.7-0.8-2.2s-1.1-0.8-1.7-0.8c-0.7,0-1.3,0.3-1.8,0.8c-0.5,0.5-0.7,1.3-0.7,2.2C837.5,29.4,839.2,29.4,840.9,29.4z"/>
<path class="st4" d="M24.7,58.7c268.2,0,536.4,0,804.6,0"/>
<g>
	<path class="st3" d="M135.5,201.5c0.9,0,1.8,0,2.7,0c0.6,0,0.9,0,0.9-0.6c0-0.3-0.3-0.3-0.8-0.3c-0.9,0-1.7,0-2.6,0
		c0.2-1.2,0.4-2.4,0.7-3.6c0.1-0.7,0.6-2.9,0.8-3.2c0.3-0.6,0.8-1.1,1.5-1.1c0.1,0,0.9,0,1.5,0.6c-1.4,0.1-1.7,1.2-1.7,1.7
		c0,0.7,0.6,1.1,1.2,1.1c0.8,0,1.7-0.7,1.7-1.9c0-1.4-1.4-2.1-2.7-2.1c-1.1,0-3,0.6-4,3.6c-0.2,0.7-0.3,1-1,4.9c-0.7,0-1.4,0-2.2,0
		c-0.6,0-0.9,0-0.9,0.6c0,0.4,0.3,0.4,0.9,0.4c0.7,0,1.4,0,2.1,0c-0.8,4.1-1.6,8.2-2.3,12.3c-0.6,3-1.1,5.9-2.7,5.9
		c-0.1,0-0.9,0-1.5-0.6c1.4-0.1,1.7-1.2,1.7-1.7c0-0.7-0.6-1.1-1.2-1.1c-0.8,0-1.7,0.7-1.7,1.9c0,1.4,1.4,2.1,2.6,2.1
		c1.7,0,3-1.8,3.5-3c1-2,1.7-5.7,1.7-6C134.3,208.1,134.9,204.8,135.5,201.5z"/>
	<path class="st3" d="M143.8,216c-0.8,1.2-1.5,1.7-2.7,1.8c-0.2,0-0.5,0-0.5,0.5c0,0.2,0.2,0.3,0.3,0.3c0.6,0,1.3-0.1,1.9-0.1
		c0.7,0,1.6,0.1,2.2,0.1c0.1,0,0.4,0,0.4-0.5c0-0.3-0.3-0.3-0.4-0.3c-0.2,0-1-0.1-1-0.7c0-0.3,0.2-0.6,0.3-0.8
		c0.6-0.9,1.2-1.8,1.7-2.7c2.1,0,4.2,0,6.2,0c0.2,1.2,0.3,2.4,0.5,3.6c-0.1,0.2-0.2,0.6-1.5,0.6c-0.3,0-0.6,0-0.6,0.5
		c0,0.1,0.1,0.3,0.3,0.3c0.6,0,2.2-0.1,2.8-0.1c0.4,0,0.9,0,1.3,0c0.4,0,0.8,0.1,1.2,0.1c0.3,0,0.4-0.2,0.4-0.5
		c0-0.3-0.3-0.3-0.6-0.3c-1.3,0-1.3-0.2-1.4-0.7c-0.6-4.5-1.3-9-1.9-13.5c-0.1-0.5-0.1-0.6-0.5-0.6s-0.5,0.2-0.7,0.5
		C149.2,207.7,146.5,211.9,143.8,216z M146.7,212.9c1.5-2.4,3.1-4.8,4.6-7.1c0.3,2.4,0.7,4.8,1,7.1
		C150.4,212.9,148.6,212.9,146.7,212.9z"/>
	<path class="st5" d="M163,206.2c69,0,138.1,0,207.1,0"/>
	<path class="st2" d="M376.2,206.2c-2-1-4-2-6-3c0,2,0,4,0,6C372.2,208.2,374.2,207.2,376.2,206.2z"/>
	<path class="st6" d="M471,206.2c0-11.8-4.7-23.1-13-31.4c-8.3-8.3-19.6-13-31.4-13s-23.1,4.7-31.4,13c-8.3,8.3-13,19.6-13,31.4
		s4.7,23.1,13,31.4c8.3,8.3,19.6,13,31.4,13s23.1-4.7,31.4-13C466.3,229.2,471,217.9,471,206.2z"/>
	<path class="st7" d="M426.6,165.3c0,27.2,0,54.4,0,81.7"/>
	<path class="st3" d="M405.6,206.6c0.2-0.3,0.2-0.4,0.2-0.4c0-0.1-0.1-0.3-0.2-0.4c-1.8-2.6-3.7-5.3-5.5-7.9c2.1,0,4.1,0,6.2,0
		c4.5,0,5.9,1,6.4,5.2c0.2,0,0.4,0,0.7,0c-0.2-2-0.5-4-0.8-6c-5,0-9.9,0-14.9,0c-0.6,0-0.7,0-0.7,0.6c2.2,3.2,4.4,6.5,6.7,9.7
		c-2.1,2.4-4.2,4.8-6.4,7.3c-0.3,0.3-0.3,0.4-0.3,0.4c0,0.3,0.3,0.3,0.7,0.3c5,0,9.9,0,14.9,0c0.2-2.1,0.5-4.2,0.8-6.3
		c-0.2,0-0.4,0-0.7,0c-0.5,4.5-2.3,5.2-6.5,5.2c-2.5,0-4.9,0-7.4,0C401.1,211.7,403.3,209.1,405.6,206.6z"/>
	<path class="st3" d="M453.7,201.8c0.4,0,1.3,0,1.3-0.9c0-0.6-0.6-0.6-1-0.6c-2,0-4.1,0-6.1,0c-4,0-7,4.4-7,7.6c0,2.4,1.6,4.2,4,4.2
		c3.2,0,6.7-3.2,6.7-7.4c0-0.5,0-1.7-0.8-2.9C451.7,201.8,452.7,201.8,453.7,201.8z M444.9,211.5c-1.3,0-2.4-1-2.4-2.9
		c0-0.8,0.3-3,1.3-4.6c1.1-1.8,2.7-2.2,3.6-2.2c2.3,0,2.5,1.8,2.5,2.6c0,1.3-0.5,3.5-1.4,4.8C447.4,210.8,445.9,211.5,444.9,211.5z"
		/>
	<path class="st3" d="M389.2,144.7c0-4.4,0-8.8,0-13.1c1.9,0,3.7,0,5.6,0c1.4,0,2.4,0.1,3.1,0.4c0.6,0.2,1.1,0.7,1.5,1.3
		c0.4,0.6,0.6,1.3,0.6,2.1c0,1-0.3,1.8-0.9,2.4c-0.6,0.6-1.4,1.1-2.6,1.2c0.6,0.3,1,0.7,1.4,1.1c0.4,0.4,0.9,1.1,1.5,2.1
		c0.5,0.9,1.1,1.7,1.6,2.6c-1.1,0-2.1,0-3.2,0c-0.6-1-1.3-1.9-1.9-2.9c-0.7-1-1.1-1.7-1.4-1.9c-0.2-0.3-0.5-0.4-0.8-0.6
		c-0.3-0.1-0.7-0.1-1.3-0.1c-0.2,0-0.4,0-0.5,0c0,1.8,0,3.7,0,5.5C390.9,144.7,390.1,144.7,389.2,144.7z M391.8,137.1
		c0.7,0,1.3,0,2,0c1.3,0,2.1-0.1,2.4-0.2s0.6-0.3,0.8-0.6c0.2-0.3,0.3-0.6,0.3-1c0-0.4-0.1-0.8-0.4-1.1c-0.2-0.3-0.6-0.4-1-0.5
		c-0.2,0-0.9,0-1.9,0c-0.7,0-1.4,0-2.1,0C391.8,134.9,391.8,136,391.8,137.1z"/>
	<path class="st3" d="M400.6,138.2c0-1.3,0.2-2.5,0.6-3.4c0.3-0.7,0.7-1.3,1.2-1.8c0.5-0.5,1.1-0.9,1.7-1.2c0.8-0.3,1.8-0.5,2.8-0.5
		c1.9,0,3.5,0.6,4.6,1.8c1.2,1.2,1.7,2.9,1.7,5c0,2.1-0.6,3.8-1.7,5c-1.2,1.2-2.7,1.8-4.6,1.8c-2,0-3.5-0.6-4.7-1.8
		C401.2,141.9,400.6,140.3,400.6,138.2z M403.4,138.1c0,1.5,0.3,2.6,1,3.4c0.7,0.8,1.6,1.1,2.6,1.1s1.9-0.4,2.6-1.1
		c0.7-0.8,1-1.9,1-3.4c0-1.5-0.3-2.6-1-3.4c-0.7-0.7-1.5-1.1-2.6-1.1s-2,0.4-2.6,1.1C403.7,135.5,403.4,136.6,403.4,138.1z"/>
	<path class="st3" d="M416.2,131.6c0.9,0,1.8,0,2.6,0c0,2.4,0,4.7,0,7.1c0,1.1,0,1.9,0.1,2.2c0.1,0.5,0.4,1,0.8,1.3
		c0.4,0.3,1,0.5,1.7,0.5c0.8,0,1.3-0.2,1.7-0.5c0.4-0.3,0.6-0.7,0.7-1.1c0.1-0.4,0.1-1.2,0.1-2.2c0-2.4,0-4.8,0-7.3
		c0.9,0,1.8,0,2.7,0c0,2.3,0,4.6,0,6.9c0,1.6-0.1,2.7-0.2,3.3c-0.1,0.7-0.4,1.2-0.8,1.7s-0.9,0.8-1.5,1.1c-0.6,0.3-1.5,0.4-2.5,0.4
		c-1.3,0-2.2-0.1-2.9-0.4c-0.6-0.3-1.2-0.7-1.5-1.1c-0.4-0.5-0.6-0.9-0.8-1.5c-0.2-0.8-0.3-1.9-0.3-3.3
		C416.2,136.2,416.2,133.9,416.2,131.6z"/>
	<path class="st3" d="M431.1,144.7c0-3.6,0-7.3,0-10.9c-1.3,0-2.6,0-3.9,0c0-0.7,0-1.5,0-2.2c3.5,0,7,0,10.4,0c0,0.7,0,1.5,0,2.2
		c-1.3,0-2.6,0-3.9,0c0,3.6,0,7.3,0,10.9C432.9,144.7,432,144.7,431.1,144.7z"/>
	<path class="st3" d="M440.2,144.7c0-4.4,0-8.8,0-13.1c3.2,0,6.5,0,9.7,0c0,0.7,0,1.5,0,2.2c-2.4,0-4.7,0-7.1,0c0,1,0,1.9,0,2.9
		c2.2,0,4.4,0,6.6,0c0,0.7,0,1.5,0,2.2c-2.2,0-4.4,0-6.6,0c0,1.2,0,2.4,0,3.6c2.4,0,4.9,0,7.3,0c0,0.7,0,1.5,0,2.2
		C446.9,144.7,443.5,144.7,440.2,144.7z"/>
	<path class="st3" d="M452.2,144.7c0-4.4,0-8.8,0-13.1c1.9,0,3.7,0,5.6,0c1.4,0,2.4,0.1,3.1,0.4c0.6,0.2,1.1,0.7,1.5,1.3
		c0.4,0.6,0.6,1.3,0.6,2.1c0,1-0.3,1.8-0.9,2.4c-0.6,0.6-1.4,1.1-2.6,1.2c0.6,0.3,1,0.7,1.4,1.1c0.4,0.4,0.9,1.1,1.5,2.1
		c0.5,0.9,1.1,1.7,1.6,2.6c-1.1,0-2.1,0-3.2,0c-0.6-1-1.3-1.9-1.9-2.9c-0.7-1-1.1-1.7-1.4-1.9c-0.2-0.3-0.5-0.4-0.8-0.6
		c-0.3-0.1-0.7-0.1-1.3-0.1c-0.2,0-0.4,0-0.5,0c0,1.8,0,3.7,0,5.5C454,144.7,453.1,144.7,452.2,144.7z M454.9,137.1c0.7,0,1.3,0,2,0
		c1.3,0,2.1-0.1,2.4-0.2c0.3-0.1,0.6-0.3,0.8-0.6c0.2-0.3,0.3-0.6,0.3-1c0-0.4-0.1-0.8-0.4-1.1c-0.2-0.3-0.6-0.4-1-0.5
		c-0.2,0-0.9,0-1.9,0c-0.7,0-1.4,0-2.1,0C454.9,134.9,454.9,136,454.9,137.1z"/>
	<path class="st5" d="M477,206.2c68.8,0,137.6,0,206.3,0"/>
	<path class="st2" d="M689.4,206.2c-2-1-4-2-6-3c0,2,0,4,0,6C685.4,208.2,687.4,207.2,689.4,206.2z"/>
	<path class="st3" d="M705.7,198.9c-0.6-1.2-1.5-2-2.9-2c-3.6,0-7.5,4.6-7.5,9.1c0,2.9,1.7,5,4.1,5c0.6,0,2.2-0.1,4.1-2.3
		c0.2,1.3,1.3,2.3,2.8,2.3c1.1,0,1.8-0.7,2.3-1.7c0.5-1.1,0.9-3,0.9-3.1c0-0.3-0.3-0.3-0.4-0.3c-0.3,0-0.3,0.1-0.4,0.6
		c-0.5,2-1.1,3.9-2.4,3.9c-0.8,0-0.9-0.8-0.9-1.4c0-0.7,0.1-0.9,0.4-2.3c0.3-1.3,0.4-1.6,0.7-2.8c0.4-1.5,0.7-2.9,1.1-4.4
		c0.2-0.9,0.2-0.9,0.2-1.1c0-0.5-0.4-0.8-0.9-0.8C706.3,197.6,705.8,198.2,705.7,198.9z M703.7,207c-0.2,0.6-0.2,0.6-0.6,1.2
		c-1.4,1.7-2.6,2.2-3.5,2.2c-1.6,0-2-1.7-2-2.9c0-1.6,1-5.4,1.7-6.8c1-1.8,2.4-3,3.6-3c2,0,2.5,2.6,2.5,2.7c0,0.2-0.1,0.4-0.1,0.5
		C704.8,202.9,704.2,205,703.7,207z"/>
	<path class="st3" d="M715.1,212.8c-0.8,1.2-1.5,1.7-2.7,1.8c-0.2,0-0.5,0-0.5,0.5c0,0.2,0.2,0.3,0.3,0.3c0.6,0,1.3-0.1,1.9-0.1
		c0.7,0,1.6,0.1,2.2,0.1c0.1,0,0.4,0,0.4-0.5c0-0.3-0.3-0.3-0.4-0.3c-0.2,0-1-0.1-1-0.7c0-0.3,0.2-0.6,0.3-0.8
		c0.6-0.9,1.2-1.8,1.7-2.7c2.1,0,4.2,0,6.2,0c0.2,1.2,0.4,2.4,0.5,3.6c-0.1,0.2-0.2,0.6-1.5,0.6c-0.3,0-0.6,0-0.6,0.5
		c0,0.1,0.1,0.3,0.3,0.3c0.6,0,2.2-0.1,2.8-0.1c0.4,0,0.9,0,1.3,0c0.4,0,0.9,0.1,1.2,0.1c0.3,0,0.4-0.2,0.4-0.5
		c0-0.3-0.3-0.3-0.6-0.3c-1.3,0-1.3-0.2-1.4-0.7c-0.6-4.5-1.3-9-1.9-13.5c-0.1-0.5-0.1-0.6-0.5-0.6c-0.4,0-0.5,0.2-0.7,0.5
		C720.4,204.5,717.8,208.6,715.1,212.8z M718,209.6c1.5-2.4,3.1-4.8,4.6-7.1c0.3,2.4,0.7,4.8,1,7.1
		C721.7,209.6,719.8,209.6,718,209.6z"/>
	<path class="st3" d="M287.3,289.7c-0.3-0.5-0.6-1-1.1-1.3c-0.4-0.3-1-0.5-1.6-0.5c-1.7,0-3.5,1.1-4.8,2.7c-1.3,1.6-2.2,3.8-2.2,5.9
		c0,2.8,1.6,4.7,3.9,4.7c0.3,0,0.8,0,1.5-0.3c0.7-0.3,1.5-0.8,2.3-1.9c0.1,0.6,0.4,1.2,0.9,1.6s1.1,0.6,1.8,0.6c1,0,1.7-0.7,2.2-1.6
		c0.2-0.5,0.5-1.2,0.6-1.8c0.2-0.6,0.3-1,0.3-1.1c0-0.1-0.1-0.2-0.1-0.3c-0.1,0-0.2,0-0.2,0c-0.3,0-0.3,0.1-0.4,0.5
		c-0.2,0.9-0.5,1.9-0.8,2.5c-0.3,0.7-0.8,1.1-1.4,1.1c-0.4,0-0.6-0.2-0.7-0.5c-0.1-0.3-0.1-0.6-0.1-0.9c0-0.6,0.1-0.9,0.4-2.2
		c0.2-0.6,0.3-1,0.3-1.4c0.1-0.4,0.2-0.7,0.3-1.3c0.2-0.7,0.4-1.4,0.5-2.1s0.4-1.4,0.5-2.1c0.2-0.8,0.2-0.9,0.2-1
		c0-0.2-0.1-0.4-0.2-0.6c-0.1-0.1-0.4-0.2-0.6-0.2C287.9,288.4,287.4,289,287.3,289.7z M285.4,297.2c-0.1,0.5-0.1,0.6-0.6,1.1
		c-1.3,1.6-2.5,2.1-3.3,2.1c-1.5,0-1.9-1.6-1.9-2.8c0-1.5,0.9-5.1,1.6-6.4c0.9-1.7,2.2-2.8,3.4-2.8c1.9,0,2.3,2.4,2.3,2.6
		s-0.1,0.4-0.1,0.5C286.4,293.4,285.9,295.3,285.4,297.2z"/>
	<path class="st3" d="M296.1,302.7c-0.7,1.1-1.4,1.6-2.6,1.7c-0.2,0-0.5,0-0.5,0.4c0,0.2,0.2,0.3,0.3,0.3c0.5,0,1.2-0.1,1.8-0.1
		c0.7,0,1.5,0.1,2.1,0.1c0.1,0,0.4,0,0.4-0.5c0-0.3-0.3-0.3-0.3-0.3c-0.2,0-0.9-0.1-0.9-0.6c0-0.2,0.2-0.6,0.3-0.8
		c0.5-0.8,1.1-1.7,1.6-2.5c2,0,3.9,0,5.9,0c0.2,1.1,0.3,2.3,0.5,3.4c-0.1,0.2-0.2,0.5-1.4,0.5c-0.2,0-0.5,0-0.5,0.4
		c0,0.1,0.1,0.3,0.3,0.3c0.6,0,2.1-0.1,2.6-0.1c0.4,0,0.8,0,1.2,0c0.4,0,0.8,0.1,1.2,0.1c0.3,0,0.4-0.2,0.4-0.4
		c0-0.3-0.2-0.3-0.6-0.3c-1.2,0-1.2-0.2-1.3-0.7c-0.6-4.2-1.2-8.4-1.8-12.7c-0.1-0.4-0.1-0.6-0.5-0.6c-0.4,0-0.5,0.2-0.7,0.5
		C301.1,294.9,298.6,298.8,296.1,302.7z M298.8,299.7c1.4-2.2,2.9-4.5,4.3-6.7c0.3,2.2,0.6,4.5,1,6.7
		C302.3,299.7,300.6,299.7,298.8,299.7z"/>
	<path class="st3" d="M339.2,291.1c0.1,0,0.2,0,0.3,0c0.1,0,0.2,0,0.3,0c0.1,0,0.2,0,0.2-0.1c0.1,0,0.1-0.1,0.2-0.2
		c0-0.1,0.1-0.2,0.1-0.3s0-0.2-0.1-0.3s-0.1-0.1-0.2-0.2c-0.1,0-0.1-0.1-0.2-0.1s-0.2,0-0.3,0c-0.1,0-0.2,0-0.3,0
		c-1.5,0-2.9,0-4.4,0c-1.5,0-2.9,0-4.4,0s-2.9,0-4.4,0s-2.9,0-4.4,0c-0.1,0-0.2,0-0.3,0c-0.1,0-0.2,0-0.3,0s-0.2,0-0.2,0.1
		c-0.1,0-0.1,0.1-0.2,0.2s-0.1,0.2-0.1,0.3s0,0.2,0.1,0.3c0,0.1,0.1,0.1,0.2,0.2c0.1,0,0.1,0.1,0.2,0.1c0.1,0,0.2,0,0.3,0
		c0.1,0,0.2,0,0.3,0c1.5,0,2.9,0,4.4,0s2.9,0,4.4,0s2.9,0,4.4,0S337.8,291.1,339.2,291.1z M339.3,296.8c0.4,0,1,0,1-0.6
		s-0.6-0.6-1-0.6c-5.8,0-11.7,0-17.5,0c-0.4,0-1,0-1,0.6s0.6,0.6,1,0.6C327.6,296.8,333.4,296.8,339.3,296.8z"/>
	<path class="st3" d="M357.8,289.8c0.6,0,1.1,0,1.7,0s1.1,0,1.7,0c-1,4.3-1.2,5.6-1.2,7.6c0,0.4,0,1.2,0.2,2.2
		c0.3,1.3,0.6,1.5,1.1,1.5c0.6,0,1.2-0.5,1.2-1.1c0-0.2,0-0.2-0.2-0.6c-0.4-1.1-0.6-2.1-0.7-2.9c-0.1-0.8-0.1-1.5-0.1-1.9
		c0-1.6,0.2-3.1,0.5-4.7c1.1,0,2.2,0,3.3,0c0.4,0,1.4,0,1.4-1c0-0.7-0.6-0.7-1.2-0.7c-3.3,0-6.5,0-9.8,0c-0.3,0-0.8,0-1.3,0.2
		s-1.1,0.5-1.8,1.2c-1,1.1-1.8,2.5-1.8,2.6c0,0,0,0.3,0.4,0.3c0.2,0,0.3-0.1,0.5-0.4c1.4-2.3,3.1-2.3,3.7-2.3c0.6,0,1.1,0,1.7,0
		c-0.5,1.8-1.1,3.5-1.8,5.2c-0.7,1.7-1.4,3.2-2,4.5c-0.2,0.4-0.2,0.5-0.2,0.7c0,0.6,0.5,0.8,0.8,0.8c0.9,0,1.1-0.8,1.5-1.9
		c0.4-1.3,0.4-1.4,0.8-2.9C356.7,294.1,357.2,292,357.8,289.8z"/>
	<path class="st3" d="M377.5,307.7C377.5,307.7,377.5,307.7,377.5,307.7c0-0.1-0.1-0.2-0.1-0.3s-0.2-0.2-0.3-0.4
		c-1.2-1.2-2.1-2.7-2.8-4.2c-0.7-1.5-1.1-3.2-1.4-4.8c-0.3-1.6-0.4-3.2-0.4-4.7c0-1.7,0.1-3.4,0.4-5c0.3-1.6,0.8-3.2,1.5-4.7
		c0.7-1.5,1.6-2.9,2.8-4.1c0.1-0.1,0.2-0.2,0.3-0.3c0.1-0.1,0.1-0.1,0.1-0.1c0,0,0-0.1,0-0.1c0-0.1,0-0.2-0.1-0.2
		c-0.1,0-0.1-0.1-0.2-0.1c-0.1,0-0.5,0.2-1,0.7s-1.1,1.1-1.8,1.9c-0.7,0.8-1.3,1.9-1.9,3.1c-0.5,1.1-0.9,2.1-1.1,3.2
		c-0.3,1.1-0.4,2.1-0.6,3c-0.1,1-0.1,1.9-0.1,2.7c0,0.8,0,1.7,0.1,2.7c0.1,1,0.3,2.1,0.6,3.2c0.3,1.1,0.7,2.2,1.2,3.3
		c0.6,1.2,1.3,2.2,1.9,3s1.3,1.4,1.7,1.9c0.5,0.4,0.8,0.6,0.9,0.6c0.1,0,0.2,0,0.2-0.1C377.4,307.9,377.5,307.9,377.5,307.7z"/>
	<path class="st3" d="M389.9,289c0.8,0,1.7,0,2.5,0c0.6,0,0.9,0,0.9-0.6c0-0.3-0.3-0.3-0.8-0.3c-0.8,0-1.6,0-2.4,0
		c0.2-1.1,0.4-2.2,0.6-3.3c0.1-0.6,0.5-2.7,0.7-3c0.3-0.6,0.8-1,1.4-1c0.1,0,0.9,0,1.4,0.5c-1.3,0.1-1.6,1.1-1.6,1.6
		c0,0.7,0.5,1,1.1,1c0.8,0,1.6-0.6,1.6-1.8c0-1.3-1.3-2-2.5-2c-1,0-2.8,0.5-3.7,3.4c-0.2,0.6-0.3,0.9-1,4.6c-0.7,0-1.3,0-2,0
		c-0.6,0-0.9,0-0.9,0.6c0,0.4,0.3,0.4,0.8,0.4c0.6,0,1.3,0,1.9,0c-0.7,3.9-1.5,7.7-2.2,11.6c-0.5,2.8-1,5.5-2.5,5.5
		c-0.1,0-0.9,0-1.4-0.5c1.3-0.1,1.6-1.1,1.6-1.6c0-0.7-0.5-1-1.1-1c-0.8,0-1.6,0.6-1.6,1.8c0,1.3,1.3,2,2.5,2c1.6,0,2.8-1.7,3.3-2.8
		c0.9-1.8,1.6-5.4,1.6-5.6C388.7,295.2,389.3,292.1,389.9,289z"/>
	<path class="st3" d="M397.7,302.7c-0.7,1.1-1.4,1.6-2.6,1.7c-0.2,0-0.5,0-0.5,0.4c0,0.2,0.2,0.3,0.3,0.3c0.5,0,1.2-0.1,1.8-0.1
		c0.7,0,1.5,0.1,2.1,0.1c0.1,0,0.4,0,0.4-0.5c0-0.3-0.3-0.3-0.3-0.3c-0.2,0-0.9-0.1-0.9-0.6c0-0.2,0.2-0.6,0.3-0.8
		c0.5-0.8,1.1-1.7,1.6-2.5c2,0,3.9,0,5.9,0c0.2,1.1,0.3,2.3,0.5,3.4c-0.1,0.2-0.2,0.5-1.4,0.5c-0.2,0-0.5,0-0.5,0.4
		c0,0.1,0.1,0.3,0.3,0.3c0.6,0,2.1-0.1,2.6-0.1c0.4,0,0.8,0,1.2,0c0.4,0,0.8,0.1,1.2,0.1c0.3,0,0.4-0.2,0.4-0.4
		c0-0.3-0.2-0.3-0.6-0.3c-1.2,0-1.2-0.2-1.3-0.7c-0.6-4.2-1.2-8.4-1.8-12.7c-0.1-0.4-0.1-0.6-0.5-0.6c-0.4,0-0.5,0.2-0.7,0.5
		C402.7,294.9,400.2,298.8,397.7,302.7z M400.4,299.7c1.4-2.2,2.9-4.5,4.3-6.7c0.3,2.2,0.6,4.5,1,6.7
		C403.9,299.7,402.2,299.7,400.4,299.7z"/>
	<path class="st3" d="M421,293.4c0-0.8,0-1.7-0.1-2.6c-0.1-1-0.3-2.1-0.6-3.2c-0.3-1.1-0.7-2.2-1.2-3.3c-0.6-1.2-1.3-2.2-1.9-3
		s-1.3-1.4-1.7-1.9s-0.8-0.6-0.9-0.6c-0.1,0-0.1,0-0.2,0s-0.1,0.1-0.1,0.1s0,0.1,0,0.2c0,0,0,0.1,0,0.1c0,0,0.1,0.1,0.1,0.2
		c0.1,0.1,0.2,0.2,0.4,0.4c1.4,1.4,2.6,3.3,3.3,5.6c0.8,2.3,1.2,5,1.2,8c0,1.7-0.1,3.4-0.4,5c-0.3,1.6-0.8,3.2-1.5,4.7
		c-0.7,1.5-1.6,2.9-2.8,4.1c-0.1,0.1-0.2,0.2-0.3,0.3c-0.1,0.1-0.1,0.1-0.1,0.1c0,0,0,0.1,0,0.1c0,0.1,0,0.1,0,0.2s0.1,0.1,0.1,0.1
		s0.1,0,0.2,0c0.1,0,0.5-0.2,1-0.7c0.5-0.4,1.1-1.1,1.8-1.9c0.7-0.8,1.3-1.9,1.9-3.1c0.8-1.6,1.2-3.2,1.5-4.8S421,294.6,421,293.4z"
		/>
	<path class="st3" d="M452.2,291.1c0.1,0,0.2,0,0.3,0c0.1,0,0.2,0,0.3,0c0.1,0,0.2,0,0.2-0.1s0.1-0.1,0.2-0.2c0-0.1,0.1-0.2,0.1-0.3
		s0-0.2-0.1-0.3s-0.1-0.1-0.2-0.2c-0.1,0-0.1-0.1-0.2-0.1s-0.2,0-0.3,0c-0.1,0-0.2,0-0.3,0c-1.5,0-2.9,0-4.4,0s-2.9,0-4.4,0
		s-2.9,0-4.4,0c-1.5,0-2.9,0-4.4,0c-0.1,0-0.2,0-0.3,0c-0.1,0-0.2,0-0.3,0s-0.2,0-0.2,0.1c-0.1,0-0.1,0.1-0.2,0.2s-0.1,0.2-0.1,0.3
		s0,0.2,0.1,0.3c0,0.1,0.1,0.1,0.2,0.2c0.1,0,0.1,0.1,0.2,0.1c0.1,0,0.2,0,0.3,0c0.1,0,0.2,0,0.3,0c1.5,0,2.9,0,4.4,0s2.9,0,4.4,0
		s2.9,0,4.4,0S450.8,291.1,452.2,291.1z M452.3,296.8c0.4,0,1,0,1-0.6s-0.6-0.6-1-0.6c-5.8,0-11.7,0-17.5,0c-0.4,0-1,0-1,0.6
		s0.6,0.6,1,0.6C440.6,296.8,446.4,296.8,452.3,296.8z"/>
	<path class="st3" d="M478.2,289.8c0.1,0,0.2,0,0.4,0s0.3,0,0.5-0.1s0.3-0.2,0.4-0.3s0.2-0.3,0.2-0.6c0-0.2-0.1-0.4-0.2-0.5
		c-0.1-0.1-0.3-0.2-0.4-0.2c-0.2,0-0.4,0-0.5,0c-0.6,0-1.1,0-1.7,0s-1.1,0-1.7,0c-0.6,0-1.1,0-1.7,0c-0.6,0-1.1,0-1.7,0
		c-1.5,0-2.8,0.5-4,1.4s-2.1,2-2.7,3.2c-0.6,1.2-1,2.5-1,3.7c0,0.6,0.1,1.3,0.3,1.8s0.5,1.1,0.9,1.5c0.4,0.4,0.8,0.8,1.4,1
		c0.5,0.2,1.1,0.4,1.8,0.4c1.2,0,2.4-0.4,3.4-1.1c1.1-0.7,2.1-1.7,2.8-2.9c0.7-1.2,1.1-2.6,1.1-4.1c0-0.1,0-0.3,0-0.5
		c0-0.2,0-0.5-0.1-0.8c-0.1-0.3-0.1-0.6-0.3-0.9s-0.3-0.6-0.5-1c0.4,0,0.7,0,1.1,0c0.4,0,0.7,0,1.1,0
		C477.5,289.8,477.8,289.8,478.2,289.8z M468.6,300.4c-1.4,0-2.6-1.1-2.6-3.2c0-0.9,0.4-3.3,1.4-5c1.2-2,3-2.4,4-2.4
		c2.5,0,2.7,1.9,2.7,2.8c0,1.4-0.6,3.8-1.6,5.3C471.3,299.6,469.7,300.4,468.6,300.4z"/>
	<path class="st3" d="M490.5,307.7C490.5,307.7,490.5,307.7,490.5,307.7c0-0.1-0.1-0.2-0.1-0.3s-0.2-0.2-0.4-0.4
		c-1.2-1.2-2.1-2.7-2.8-4.2c-0.7-1.5-1.1-3.2-1.4-4.8s-0.4-3.2-0.4-4.7c0-1.7,0.1-3.4,0.4-5c0.3-1.6,0.8-3.2,1.5-4.7
		c0.7-1.5,1.6-2.9,2.8-4.1c0.1-0.1,0.2-0.2,0.3-0.3c0.1-0.1,0.1-0.1,0.1-0.1c0,0,0-0.1,0-0.1c0-0.1,0-0.2-0.1-0.2
		c-0.1,0-0.1-0.1-0.2-0.1c-0.1,0-0.5,0.2-1,0.7c-0.5,0.4-1.1,1.1-1.8,1.9c-0.7,0.8-1.3,1.9-1.9,3.1c-0.5,1.1-0.9,2.1-1.1,3.2
		s-0.4,2.1-0.6,3c-0.1,1-0.1,1.9-0.1,2.7c0,0.8,0,1.7,0.1,2.7c0.1,1,0.3,2.1,0.6,3.2c0.3,1.1,0.7,2.2,1.2,3.3c0.6,1.2,1.3,2.2,1.9,3
		s1.3,1.4,1.7,1.9c0.5,0.4,0.8,0.6,0.9,0.6c0.1,0,0.2,0,0.2-0.1C490.5,307.9,490.5,307.9,490.5,307.7z"/>
	<path class="st3" d="M505.7,290.8c0.1-0.6,0.4-1.7,0.4-1.9c0-0.5-0.4-0.8-0.8-0.8c-0.4,0-0.9,0.2-1.1,0.8c-0.1,0.2-1.5,5.8-1.7,6.6
		c-0.2,0.9-0.3,1.4-0.3,1.9c0,0.3,0,0.4,0,0.5c-0.7,1.6-1.6,2.5-2.7,2.5c-2.3,0-2.3-2.2-2.3-2.7c0-0.9,0.1-2.1,1.5-5.7
		c0.3-0.9,0.5-1.3,0.5-1.9c0-1.3-1-2.4-2.4-2.4c-2.8,0-3.9,4.2-3.9,4.5c0,0.3,0.3,0.3,0.4,0.3c0.3,0,0.3-0.1,0.5-0.5
		c0.8-2.7,1.9-3.6,3-3.6c0.3,0,0.7,0,0.7,1c0,0.7-0.3,1.6-0.5,2.1c-1.3,3.5-1.6,4.8-1.6,5.9c0,2.7,2,3.7,4.2,3.7c0.5,0,1.9,0,3-2
		c0.8,1.9,2.8,2,3.7,2c2.2,0,3.5-1.8,4.2-3.6c1-2.3,1.9-6.2,1.9-7.6c0-1.6-0.8-2.1-1.3-2.1c-0.7,0-1.5,0.8-1.5,1.4
		c0,0.4,0.2,0.6,0.4,0.8c0.3,0.3,1.1,1.1,1.1,2.5c0,1-0.8,3.9-1.6,5.4c-0.8,1.6-1.8,2.6-3.2,2.6c-1.4,0-2.2-0.9-2.2-2.5
		c0-0.8,0.2-1.7,0.3-2.1C504.9,294.1,505.3,292.4,505.7,290.8z"/>
	<path class="st3" d="M523.6,275.4c0.7,0,1.4,0,2.1,0s1.4,0,2.1,0c0.7,0,1.4,0,2.1,0c0.1,0,0.2,0,0.4,0c0.1,0,0.2-0.1,0.3-0.1
		c0.1-0.1,0.1-0.2,0.1-0.3c0-0.3-0.1-0.4-0.3-0.4c-0.2-0.1-0.4-0.1-0.5-0.1c-1.5,0-3,0-4.5,0s-3,0-4.5,0c-1.5,0-3,0-4.5,0
		c-0.2,0-0.4,0-0.5,0.1c-0.2,0.1-0.3,0.2-0.3,0.4c0,0.2,0.1,0.3,0.1,0.4s0.2,0.1,0.3,0.1s0.3,0,0.4,0c1,0,2.1,0,3.1,0s2.1,0,3.1,0
		c0,1.4,0,2.8,0,4.1s0,2.8,0,4.1c0,1.4,0,2.8,0,4.1c0,0.2,0,0.4,0.1,0.5c0.1,0.2,0.2,0.3,0.4,0.3c0.2,0,0.3-0.1,0.3-0.1
		c0.1-0.1,0.1-0.2,0.1-0.3c0-0.1,0-0.2,0-0.3c0-2.1,0-4.1,0-6.2S523.6,277.5,523.6,275.4z"/>
	<path class="st3" d="M544.5,289c0.8,0,1.7,0,2.5,0c0.6,0,0.9,0,0.9-0.6c0-0.3-0.3-0.3-0.8-0.3c-0.8,0-1.6,0-2.4,0
		c0.2-1.1,0.4-2.2,0.6-3.3c0.1-0.6,0.5-2.7,0.7-3c0.3-0.6,0.8-1,1.4-1c0.1,0,0.9,0,1.4,0.5c-1.3,0.1-1.6,1.1-1.6,1.6
		c0,0.7,0.5,1,1.1,1c0.8,0,1.6-0.6,1.6-1.8c0-1.3-1.3-2-2.5-2c-1,0-2.8,0.5-3.7,3.4c-0.2,0.6-0.3,0.9-1,4.6c-0.7,0-1.3,0-2,0
		c-0.6,0-0.9,0-0.9,0.6c0,0.4,0.3,0.4,0.8,0.4c0.6,0,1.3,0,1.9,0c-0.7,3.9-1.5,7.7-2.2,11.6c-0.5,2.8-1,5.5-2.5,5.5
		c-0.1,0-0.8,0-1.4-0.5c1.3-0.1,1.6-1.1,1.6-1.6c0-0.7-0.5-1-1.1-1c-0.8,0-1.6,0.6-1.6,1.8c0,1.3,1.3,2,2.5,2c1.6,0,2.8-1.7,3.3-2.8
		c0.9-1.8,1.6-5.4,1.6-5.6C543.3,295.2,543.9,292.1,544.5,289z"/>
	<path class="st3" d="M552.3,302.7c-0.7,1.1-1.4,1.6-2.6,1.7c-0.2,0-0.5,0-0.5,0.4c0,0.2,0.2,0.3,0.3,0.3c0.5,0,1.2-0.1,1.8-0.1
		c0.7,0,1.5,0.1,2.1,0.1c0.1,0,0.4,0,0.4-0.5c0-0.3-0.3-0.3-0.4-0.3c-0.2,0-0.9-0.1-0.9-0.6c0-0.2,0.2-0.6,0.3-0.8
		c0.5-0.8,1.1-1.7,1.6-2.5c2,0,3.9,0,5.9,0c0.2,1.1,0.3,2.3,0.5,3.4c-0.1,0.2-0.2,0.5-1.4,0.5c-0.2,0-0.5,0-0.5,0.4
		c0,0.1,0.1,0.3,0.3,0.3c0.6,0,2.1-0.1,2.6-0.1c0.4,0,0.8,0,1.2,0c0.4,0,0.8,0.1,1.2,0.1c0.3,0,0.4-0.2,0.4-0.4
		c0-0.3-0.2-0.3-0.6-0.3c-1.2,0-1.2-0.2-1.3-0.7c-0.6-4.2-1.2-8.4-1.8-12.7c-0.1-0.4-0.1-0.6-0.5-0.6s-0.5,0.2-0.7,0.5
		C557.3,294.9,554.8,298.8,552.3,302.7z M555,299.7c1.4-2.2,2.9-4.5,4.3-6.7c0.3,2.2,0.6,4.5,1,6.7
		C558.5,299.7,556.7,299.7,555,299.7z"/>
	<path class="st3" d="M575.6,293.4c0-0.8,0-1.7-0.1-2.6c-0.1-1-0.3-2.1-0.6-3.2c-0.3-1.1-0.7-2.2-1.2-3.3c-0.6-1.2-1.3-2.2-1.9-3
		c-0.6-0.8-1.3-1.4-1.7-1.9s-0.8-0.6-0.9-0.6c-0.1,0-0.1,0-0.2,0s-0.1,0.1-0.1,0.1s0,0.1,0,0.2c0,0,0,0.1,0,0.1c0,0,0.1,0.1,0.1,0.2
		s0.2,0.2,0.4,0.4c1.4,1.4,2.6,3.3,3.3,5.6c0.8,2.3,1.2,5,1.2,8c0,1.7-0.1,3.4-0.4,5c-0.3,1.6-0.8,3.2-1.5,4.7
		c-0.7,1.5-1.6,2.9-2.8,4.1c-0.1,0.1-0.2,0.2-0.3,0.3c-0.1,0.1-0.1,0.1-0.1,0.1s0,0.1,0,0.1c0,0.1,0,0.1,0,0.2s0.1,0.1,0.1,0.1
		s0.1,0,0.2,0c0.1,0,0.5-0.2,1-0.7c0.5-0.4,1.1-1.1,1.8-1.9c0.7-0.8,1.3-1.9,1.9-3.1c0.7-1.6,1.2-3.2,1.5-4.8
		S575.6,294.6,575.6,293.4z"/>
	<path class="st3" d="M385.8,336.5c-0.4-0.9-1.1-1.5-2.1-1.5c-2.7,0-5.6,3.4-5.6,6.8c0,2.2,1.3,3.7,3.1,3.7c0.5,0,1.6-0.1,3-1.7
		c0.2,1,1,1.7,2.1,1.7c0.8,0,1.3-0.5,1.7-1.3c0.4-0.8,0.7-2.2,0.7-2.3c0-0.2-0.2-0.2-0.3-0.2c-0.2,0-0.3,0.1-0.3,0.4
		c-0.4,1.5-0.8,2.9-1.8,2.9c-0.6,0-0.7-0.6-0.7-1.1c0-0.5,0-0.7,0.3-1.7c0.3-1,0.3-1.2,0.5-2.1c0.3-1.1,0.6-2.2,0.8-3.2
		c0.2-0.6,0.2-0.7,0.2-0.8c0-0.4-0.3-0.6-0.7-0.6C386.2,335.5,385.8,336,385.8,336.5z M384.3,342.5c-0.1,0.4-0.1,0.5-0.5,0.9
		c-1,1.3-2,1.6-2.6,1.6c-1.2,0-1.5-1.3-1.5-2.2c0-1.2,0.7-4,1.3-5.1c0.7-1.4,1.8-2.2,2.7-2.2c1.5,0,1.8,1.9,1.8,2
		c0,0.1,0,0.3-0.1,0.4C385,339.5,384.6,341,384.3,342.5z"/>
	<path class="st3" d="M392.7,346.7c-0.6,0.9-1.1,1.3-2,1.4c-0.2,0-0.4,0-0.4,0.3c0,0.2,0.1,0.2,0.2,0.2c0.4,0,1-0.1,1.4-0.1
		c0.5,0,1.2,0.1,1.7,0.1c0.1,0,0.3,0,0.3-0.4c0-0.2-0.2-0.2-0.3-0.2c-0.1,0-0.7,0-0.7-0.5c0-0.2,0.2-0.5,0.2-0.6
		c0.4-0.7,0.9-1.3,1.3-2c1.5,0,3.1,0,4.6,0c0.1,0.9,0.3,1.8,0.4,2.7c-0.1,0.2-0.2,0.4-1.1,0.4c-0.2,0-0.4,0-0.4,0.4
		c0,0.1,0.1,0.2,0.3,0.2c0.5,0,1.6-0.1,2.1-0.1c0.3,0,0.7,0,0.9,0c0.3,0,0.6,0.1,0.9,0.1c0.2,0,0.3-0.1,0.3-0.3
		c0-0.2-0.2-0.2-0.5-0.2c-0.9,0-1-0.1-1-0.5c-0.5-3.3-0.9-6.6-1.4-10c0-0.3-0.1-0.5-0.4-0.5c-0.3,0-0.4,0.1-0.6,0.4
		C396.6,340.6,394.6,343.7,392.7,346.7z M394.8,344.4c1.1-1.8,2.3-3.5,3.4-5.3c0.3,1.8,0.5,3.5,0.8,5.3
		C397.6,344.4,396.2,344.4,394.8,344.4z"/>
	<path class="st3" d="M426.6,337.7c0.3,0,0.8,0,0.8-0.5s-0.4-0.5-0.8-0.5c-4.6,0-9.2,0-13.8,0c-0.3,0-0.8,0-0.8,0.5s0.4,0.5,0.8,0.5
		C417.4,337.7,422,337.7,426.6,337.7z M426.6,342.1c0.3,0,0.8,0,0.8-0.5s-0.4-0.5-0.8-0.5c-4.6,0-9.2,0-13.8,0c-0.3,0-0.8,0-0.8,0.5
		s0.4,0.5,0.8,0.5C417.4,342.1,422,342.1,426.6,342.1z"/>
	<path class="st3" d="M445.7,337.8c0-1.8-0.1-3.7-0.9-5.4c-1.1-2.2-3-2.6-3.9-2.6c-1.4,0-3.1,0.6-4,2.7c-0.7,1.6-0.9,3.4-0.9,5.2
		c0,1.7,0.1,3.8,1,5.6c1,1.9,2.7,2.3,3.8,2.3c1.2,0,3-0.5,4-2.7C445.6,341.4,445.7,339.7,445.7,337.8z M440.8,345.2
		c-0.9,0-2.3-0.6-2.7-2.8c-0.3-1.4-0.3-3.5-0.3-4.9c0-1.5,0-3,0.2-4.2c0.4-2.7,2.2-3,2.7-3c0.8,0,2.3,0.4,2.7,2.7
		c0.2,1.3,0.2,3,0.2,4.5c0,1.7,0,3.3-0.3,4.8C443.2,344.5,441.9,345.2,440.8,345.2z"/>
	<path class="st3" d="M451.1,344c0-0.7-0.6-1.2-1.2-1.2s-1.2,0.6-1.2,1.2c0,0.7,0.6,1.2,1.2,1.2S451.1,344.7,451.1,344z"/>
	<path class="st3" d="M456.8,334.7c-1.1-0.7-1.2-1.5-1.2-1.9c0-1.4,1.5-2.4,3.1-2.4c1.7,0,3.2,1.2,3.2,2.9c0,1.3-0.9,2.4-2.3,3.2
		C458.7,335.9,457.8,335.3,456.8,334.7z M460.2,336.9c1.7-0.9,2.8-2.1,2.8-3.6c0-2.1-2.1-3.4-4.1-3.4c-2.3,0-4.2,1.7-4.2,3.9
		c0,0.4,0,1.5,1,2.5c0.3,0.3,1.1,0.9,1.7,1.2c-1.3,0.7-3.3,2-3.3,4.2c0,2.4,2.4,4,4.8,4c2.6,0,4.8-1.9,4.8-4.4
		c0-0.8-0.3-1.9-1.1-2.8C462,338,461.6,337.8,460.2,336.9z M457.9,337.8c0.9,0.6,1.9,1.2,2.8,1.8c0.6,0.4,1.7,1.1,1.7,2.5
		c0,1.7-1.7,2.9-3.6,2.9c-2,0-3.6-1.4-3.6-3.3C455.2,340.4,455.9,338.9,457.9,337.8z"/>
	<path class="st3" d="M467.6,337.6c0-0.2,0-0.4,0-0.6c0-5.8,2.9-6.7,4-6.7c0.6,0,1.5,0.1,2,0.9c-0.3,0-1.3,0-1.3,1
		c0,0.7,0.6,1.1,1.1,1.1c0.4,0,1.1-0.2,1.1-1.1c0-1.4-1-2.5-2.9-2.5c-3,0-6.1,3-6.1,8.1c0,6.2,2.7,7.8,4.8,7.8
		c2.6,0,4.8-2.2,4.8-5.2c0-2.9-2.1-5.1-4.6-5.1C468.9,335.4,468.1,336.5,467.6,337.6z M470.4,345.1c-1.5,0-2.1-1.4-2.3-1.7
		c-0.4-1.1-0.4-2.9-0.4-3.3c0-1.8,0.7-4.1,2.8-4.1c0.4,0,1.4,0,2.1,1.4c0.4,0.9,0.4,2,0.4,3.2c0,1.1,0,2.3-0.4,3.1
		C471.9,345,470.9,345.1,470.4,345.1z"/>
</g>
</svg>
